# Blender v2.73 (sub 0) OBJ File: 'Hexagon.blend'
# www.blender.org
mtllib HexagonWireframe.mtl
o Cylinder.001
v 0.000000 -97.865097 -97.226654
v 0.000000 -100.000000 -100.000000
v 0.000000 97.865097 -97.226654
v 0.000000 100.000000 -100.000000
v 84.200706 -97.865097 -48.613323
v 86.602547 -100.000000 -49.999996
v 84.200706 97.865097 -48.613323
v 86.602547 100.000000 -49.999996
v 84.200699 -97.865097 48.613335
v 86.602539 -100.000000 50.000008
v 84.200699 97.865097 48.613335
v 86.602539 100.000000 50.000008
v -0.000009 -97.865097 97.226654
v -0.000009 -100.000000 100.000000
v -0.000009 97.865097 97.226654
v -0.000009 100.000000 100.000000
v -84.200706 -97.865097 48.613319
v -86.602547 -100.000000 49.999992
v -84.200706 97.865097 48.613319
v -86.602547 100.000000 49.999992
v -84.200706 -97.865097 -48.613319
v -86.602547 -100.000000 -49.999992
v -84.200706 97.865097 -48.613319
v -86.602547 100.000000 -49.999992
v 1.515545 -97.182549 -97.738327
v 1.515545 97.182549 -97.738327
v 83.886086 97.182549 -50.181660
v 83.886086 -97.182549 -50.181660
v 85.401627 -97.182549 -47.556660
v 85.401627 97.182549 -47.556660
v 85.401619 97.182549 47.556671
v 85.401619 -97.182549 47.556671
v 83.886078 -97.182549 50.181671
v 83.886078 97.182549 50.181671
v 1.515536 97.182549 97.738327
v 1.515536 -97.182549 97.738327
v -1.515553 -97.182549 97.738327
v -1.515553 97.182549 97.738327
v -83.886086 97.182549 50.181656
v -83.886086 -97.182549 50.181656
v 83.651627 98.932549 -48.296295
v 0.000000 98.932549 -96.592598
v -83.651627 98.932549 -48.296291
v -83.651627 98.932549 48.296291
v -0.000009 98.932549 96.592598
v 83.651619 98.932549 48.296307
v -83.886086 -97.182549 -50.181656
v -83.886086 97.182549 -50.181656
v -1.515545 97.182549 -97.738327
v -1.515545 -97.182549 -97.738327
v -85.401627 -97.182549 47.556656
v -85.401627 97.182549 47.556656
v -85.401627 97.182549 -47.556656
v -85.401627 -97.182549 -47.556656
v 0.000000 -98.932549 -96.592598
v 83.651627 -98.932549 -48.296295
v 83.651619 -98.932549 48.296307
v -0.000009 -98.932549 96.592598
v -83.651627 -98.932549 48.296291
v -83.651627 -98.932549 -48.296291
v 0.000000 -97.865097 -97.226654
v 0.000000 -97.865097 -97.226654
v 0.000000 -97.865097 -97.226654
v 0.000000 -97.865097 -97.226654
v 0.000000 -97.865097 -97.226654
v 1.515545 -97.182549 -97.738327
v 1.515545 -97.182549 -97.738327
v 1.515545 -97.182549 -97.738327
v 1.515545 97.182549 -97.738327
v 1.515545 97.182549 -97.738327
v 1.515545 97.182549 -97.738327
v 0.000000 97.865097 -97.226654
v 0.000000 97.865097 -97.226654
v 0.000000 97.865097 -97.226654
v 0.000000 97.865097 -97.226654
v 0.000000 97.865097 -97.226654
v 0.000000 100.000000 -100.000000
v 0.000000 100.000000 -100.000000
v 0.000000 100.000000 -100.000000
v 0.000000 100.000000 -100.000000
v 0.000000 -100.000000 -100.000000
v 0.000000 -100.000000 -100.000000
v 0.000000 -100.000000 -100.000000
v 0.000000 -100.000000 -100.000000
v 83.886086 97.182549 -50.181660
v 83.886086 97.182549 -50.181660
v 83.886086 97.182549 -50.181660
v 84.200706 97.865097 -48.613323
v 84.200706 97.865097 -48.613323
v 84.200706 97.865097 -48.613323
v 84.200706 97.865097 -48.613323
v 84.200706 97.865097 -48.613323
v 86.602547 100.000000 -49.999996
v 86.602547 100.000000 -49.999996
v 86.602547 100.000000 -49.999996
v 86.602547 100.000000 -49.999996
v 83.886086 -97.182549 -50.181660
v 83.886086 -97.182549 -50.181660
v 83.886086 -97.182549 -50.181660
v 84.200706 -97.865097 -48.613323
v 84.200706 -97.865097 -48.613323
v 84.200706 -97.865097 -48.613323
v 84.200706 -97.865097 -48.613323
v 84.200706 -97.865097 -48.613323
v 86.602547 -100.000000 -49.999996
v 86.602547 -100.000000 -49.999996
v 86.602547 -100.000000 -49.999996
v 86.602547 -100.000000 -49.999996
v 85.401627 -97.182549 -47.556660
v 85.401627 -97.182549 -47.556660
v 85.401627 -97.182549 -47.556660
v 85.401627 97.182549 -47.556660
v 85.401627 97.182549 -47.556660
v 85.401627 97.182549 -47.556660
v 85.401619 97.182549 47.556671
v 85.401619 97.182549 47.556671
v 85.401619 97.182549 47.556671
v 84.200699 97.865097 48.613335
v 84.200699 97.865097 48.613335
v 84.200699 97.865097 48.613335
v 84.200699 97.865097 48.613335
v 84.200699 97.865097 48.613335
v 86.602539 100.000000 50.000008
v 86.602539 100.000000 50.000008
v 86.602539 100.000000 50.000008
v 86.602539 100.000000 50.000008
v 85.401619 -97.182549 47.556671
v 85.401619 -97.182549 47.556671
v 85.401619 -97.182549 47.556671
v 84.200699 -97.865097 48.613335
v 84.200699 -97.865097 48.613335
v 84.200699 -97.865097 48.613335
v 84.200699 -97.865097 48.613335
v 84.200699 -97.865097 48.613335
v 86.602539 -100.000000 50.000008
v 86.602539 -100.000000 50.000008
v 86.602539 -100.000000 50.000008
v 86.602539 -100.000000 50.000008
v 83.886078 -97.182549 50.181671
v 83.886078 -97.182549 50.181671
v 83.886078 -97.182549 50.181671
v 83.886078 97.182549 50.181671
v 83.886078 97.182549 50.181671
v 83.886078 97.182549 50.181671
v 1.515536 97.182549 97.738327
v 1.515536 97.182549 97.738327
v 1.515536 97.182549 97.738327
v -0.000009 97.865097 97.226654
v -0.000009 97.865097 97.226654
v -0.000009 97.865097 97.226654
v -0.000009 97.865097 97.226654
v -0.000009 97.865097 97.226654
v -0.000009 100.000000 100.000000
v -0.000009 100.000000 100.000000
v -0.000009 100.000000 100.000000
v -0.000009 100.000000 100.000000
v 1.515536 -97.182549 97.738327
v 1.515536 -97.182549 97.738327
v 1.515536 -97.182549 97.738327
v -0.000009 -97.865097 97.226654
v -0.000009 -97.865097 97.226654
v -0.000009 -97.865097 97.226654
v -0.000009 -97.865097 97.226654
v -0.000009 -97.865097 97.226654
v -0.000009 -100.000000 100.000000
v -0.000009 -100.000000 100.000000
v -0.000009 -100.000000 100.000000
v -0.000009 -100.000000 100.000000
v -1.515553 -97.182549 97.738327
v -1.515553 -97.182549 97.738327
v -1.515553 -97.182549 97.738327
v -1.515553 97.182549 97.738327
v -1.515553 97.182549 97.738327
v -1.515553 97.182549 97.738327
v -83.886086 97.182549 50.181656
v -83.886086 97.182549 50.181656
v -83.886086 97.182549 50.181656
v -84.200706 97.865097 48.613319
v -84.200706 97.865097 48.613319
v -84.200706 97.865097 48.613319
v -84.200706 97.865097 48.613319
v -84.200706 97.865097 48.613319
v -86.602547 100.000000 49.999992
v -86.602547 100.000000 49.999992
v -86.602547 100.000000 49.999992
v -86.602547 100.000000 49.999992
v -83.886086 -97.182549 50.181656
v -83.886086 -97.182549 50.181656
v -83.886086 -97.182549 50.181656
v -84.200706 -97.865097 48.613319
v -84.200706 -97.865097 48.613319
v -84.200706 -97.865097 48.613319
v -84.200706 -97.865097 48.613319
v -84.200706 -97.865097 48.613319
v -86.602547 -100.000000 49.999992
v -86.602547 -100.000000 49.999992
v -86.602547 -100.000000 49.999992
v -86.602547 -100.000000 49.999992
v 83.651627 98.932549 -48.296295
v 83.651627 98.932549 -48.296295
v 0.000000 98.932549 -96.592598
v 0.000000 98.932549 -96.592598
v -83.651627 98.932549 -48.296291
v -83.651627 98.932549 -48.296291
v -84.200706 97.865097 -48.613319
v -84.200706 97.865097 -48.613319
v -84.200706 97.865097 -48.613319
v -84.200706 97.865097 -48.613319
v -84.200706 97.865097 -48.613319
v -86.602547 100.000000 -49.999992
v -86.602547 100.000000 -49.999992
v -86.602547 100.000000 -49.999992
v -86.602547 100.000000 -49.999992
v -83.651627 98.932549 48.296291
v -83.651627 98.932549 48.296291
v -0.000009 98.932549 96.592598
v -0.000009 98.932549 96.592598
v 83.651619 98.932549 48.296307
v 83.651619 98.932549 48.296307
v -84.200706 -97.865097 -48.613319
v -84.200706 -97.865097 -48.613319
v -84.200706 -97.865097 -48.613319
v -84.200706 -97.865097 -48.613319
v -84.200706 -97.865097 -48.613319
v -83.886086 -97.182549 -50.181656
v -83.886086 -97.182549 -50.181656
v -83.886086 -97.182549 -50.181656
v -83.886086 97.182549 -50.181656
v -83.886086 97.182549 -50.181656
v -83.886086 97.182549 -50.181656
v -86.602547 -100.000000 -49.999992
v -86.602547 -100.000000 -49.999992
v -86.602547 -100.000000 -49.999992
v -86.602547 -100.000000 -49.999992
v -1.515545 97.182549 -97.738327
v -1.515545 97.182549 -97.738327
v -1.515545 97.182549 -97.738327
v -1.515545 -97.182549 -97.738327
v -1.515545 -97.182549 -97.738327
v -1.515545 -97.182549 -97.738327
v -85.401627 -97.182549 47.556656
v -85.401627 -97.182549 47.556656
v -85.401627 -97.182549 47.556656
v -85.401627 97.182549 47.556656
v -85.401627 97.182549 47.556656
v -85.401627 97.182549 47.556656
v -85.401627 97.182549 -47.556656
v -85.401627 97.182549 -47.556656
v -85.401627 97.182549 -47.556656
v -85.401627 -97.182549 -47.556656
v -85.401627 -97.182549 -47.556656
v -85.401627 -97.182549 -47.556656
v 0.000000 -98.932549 -96.592598
v 0.000000 -98.932549 -96.592598
v 83.651627 -98.932549 -48.296295
v 83.651627 -98.932549 -48.296295
v 83.651619 -98.932549 48.296307
v 83.651619 -98.932549 48.296307
v -0.000009 -98.932549 96.592598
v -0.000009 -98.932549 96.592598
v -83.651627 -98.932549 48.296291
v -83.651627 -98.932549 48.296291
v -83.651627 -98.932549 -48.296291
v -83.651627 -98.932549 -48.296291
vn 0.319900 0.000000 0.947500
vn 0.830700 0.000000 -0.556700
vn -0.247100 -0.869400 0.427900
vn 0.460000 -0.392100 -0.796700
vn -0.980500 0.000000 0.196700
vn 0.066700 0.000000 -0.997800
vn -0.247100 0.869400 0.427900
vn 0.460000 0.392100 -0.796700
vn -0.660600 0.000000 0.750800
vn 0.897500 0.000000 0.441100
vn -0.494100 -0.869400 0.000000
vn 0.919900 -0.392100 0.000000
vn -0.660600 0.000000 -0.750800
vn 0.897500 0.000000 -0.441100
vn -0.494100 0.869400 -0.000000
vn 0.919900 0.392100 0.000000
vn -0.980500 0.000000 -0.196700
vn 0.066700 0.000000 0.997800
vn -0.247100 -0.869400 -0.427900
vn 0.460000 -0.392100 0.796700
vn 0.319900 0.000000 -0.947500
vn 0.830700 0.000000 0.556700
vn -0.247100 0.869400 -0.427900
vn 0.460000 0.392100 0.796700
vn -0.319900 0.000000 -0.947500
vn -0.830700 0.000000 0.556700
vn 0.247100 -0.869400 -0.427900
vn -0.460000 -0.392100 0.796700
vn 0.980500 0.000000 -0.196700
vn -0.066700 0.000000 0.997800
vn 0.247100 0.869400 -0.427900
vn -0.460000 0.392100 0.796700
vn -0.444600 -0.457400 0.770100
vn -0.170100 0.940400 0.294600
vn 0.444600 -0.457400 0.770100
vn 0.170100 0.940400 0.294600
vn 0.889200 -0.457400 0.000000
vn 0.340200 0.940400 0.000000
vn 0.444600 -0.457400 -0.770100
vn 0.170100 0.940400 -0.294600
vn -0.444600 -0.457400 -0.770100
vn -0.170100 0.940400 -0.294600
vn -0.889300 -0.457400 -0.000000
vn -0.340200 0.940400 0.000000
vn 0.980500 0.000000 0.196700
vn -0.066700 0.000000 -0.997800
vn 0.247100 -0.869400 0.427900
vn -0.460000 -0.392100 -0.796700
vn -0.319900 0.000000 0.947500
vn -0.830700 0.000000 -0.556700
vn 0.247100 0.869400 0.427900
vn -0.460000 0.392100 -0.796700
vn 0.660600 0.000000 -0.750800
vn -0.897500 0.000000 -0.441100
vn 0.494100 -0.869400 0.000000
vn -0.919900 -0.392100 0.000000
vn 0.660600 0.000000 0.750800
vn -0.897500 0.000000 0.441100
vn 0.494100 0.869400 0.000000
vn -0.919900 0.392100 0.000000
vn -0.444600 0.457400 0.770100
vn -0.170100 -0.940400 0.294600
vn -0.889300 0.457400 -0.000000
vn -0.340200 -0.940400 0.000000
vn -0.444600 0.457400 -0.770100
vn -0.170100 -0.940400 -0.294600
vn 0.444600 0.457400 -0.770100
vn 0.170100 -0.940400 -0.294600
vn 0.889200 0.457400 0.000000
vn 0.340200 -0.940400 0.000000
vn 0.444600 0.457400 0.770100
vn 0.170100 -0.940400 0.294600
vn 0.889300 -0.457400 0.000000
vn 0.889300 0.457400 0.000000
g Cylinder.001_Cylinder.001_None
usemtl None
s off
f 26//1 3//1 1//1
f 66//2 2//2 4//2
f 70//3 27//3 7//3
f 85//4 71//4 77//4
f 28//5 5//5 88//5
f 87//6 93//6 6//6
f 67//7 61//7 100//7
f 99//8 105//8 81//8
f 30//9 89//9 101//9
f 109//10 106//10 94//10
f 31//11 11//11 90//11
f 114//12 95//12 12//12
f 32//13 9//13 118//13
f 117//14 123//14 10//14
f 110//15 102//15 130//15
f 129//16 135//16 107//16
f 34//17 119//17 131//17
f 139//18 136//18 124//18
f 35//19 15//19 120//19
f 144//20 125//20 16//20
f 36//21 13//21 148//21
f 147//22 153//22 14//22
f 158//23 140//23 132//23
f 141//24 159//24 165//24
f 38//25 149//25 161//25
f 169//26 166//26 154//26
f 173//27 39//27 19//27
f 175//28 174//28 155//28
f 40//29 17//29 178//29
f 177//30 183//30 18//30
f 170//31 162//31 190//31
f 189//32 195//32 167//32
f 42//33 73//33 91//33
f 199//34 96//34 78//34
f 202//35 43//35 23//35
f 203//36 201//36 78//36
f 44//37 179//37 205//37
f 203//38 24//38 184//38
f 45//39 151//39 181//39
f 214//40 184//40 156//40
f 217//41 46//41 121//41
f 218//42 216//42 156//42
f 200//43 92//43 122//43
f 218//44 126//44 96//44
f 48//45 206//45 21//45
f 225//46 22//46 210//46
f 49//47 75//47 208//47
f 230//48 212//48 79//48
f 50//49 62//49 76//49
f 237//50 80//50 82//50
f 239//51 226//51 220//51
f 227//52 240//52 83//52
f 52//53 180//53 191//53
f 241//54 196//54 185//54
f 53//55 207//55 182//55
f 246//56 186//56 211//56
f 54//57 221//57 209//57
f 249//58 213//58 232//58
f 242//59 192//59 222//59
f 252//60 233//60 197//60
f 55//61 56//61 103//61
f 255//62 253//62 84//62
f 57//63 133//63 104//63
f 255//64 108//64 138//64
f 58//65 163//65 134//65
f 257//66 138//66 168//66
f 260//67 59//67 193//67
f 261//68 259//68 168//68
f 60//69 223//69 194//69
f 261//70 198//70 234//70
f 254//71 65//71 224//71
f 263//72 234//72 84//72
f 25//1 26//1 1//1
f 69//2 66//2 4//2
f 72//3 70//3 7//3
f 8//4 85//4 77//4
f 86//5 28//5 88//5
f 97//6 87//6 6//6
f 98//7 67//7 100//7
f 68//8 99//8 81//8
f 29//9 30//9 101//9
f 112//10 109//10 94//10
f 113//11 31//11 90//11
f 115//12 114//12 12//12
f 116//13 32//13 118//13
f 127//14 117//14 10//14
f 128//15 110//15 130//15
f 111//16 129//16 107//16
f 33//17 34//17 131//17
f 142//18 139//18 124//18
f 143//19 35//19 120//19
f 145//20 144//20 16//20
f 146//21 36//21 148//21
f 157//22 147//22 14//22
f 160//23 158//23 132//23
f 137//24 141//24 165//24
f 37//25 38//25 161//25
f 172//26 169//26 154//26
f 150//27 173//27 19//27
f 20//28 175//28 155//28
f 176//29 40//29 178//29
f 187//30 177//30 18//30
f 188//31 170//31 190//31
f 171//32 189//32 167//32
f 41//33 42//33 91//33
f 201//34 199//34 78//34
f 74//35 202//35 23//35
f 24//36 203//36 78//36
f 204//73 44//73 205//73
f 214//38 203//38 184//38
f 215//39 45//39 181//39
f 216//40 214//40 156//40
f 152//41 217//41 121//41
f 126//42 218//42 156//42
f 219//43 200//43 122//43
f 199//44 218//44 96//44
f 47//45 48//45 21//45
f 228//46 225//46 210//46
f 229//47 49//47 208//47
f 235//48 230//48 79//48
f 236//49 50//49 76//49
f 238//50 237//50 82//50
f 63//51 239//51 220//51
f 231//52 227//52 83//52
f 51//53 52//53 191//53
f 244//54 241//54 185//54
f 245//55 53//55 182//55
f 247//56 246//56 211//56
f 248//57 54//57 209//57
f 250//58 249//58 232//58
f 251//59 242//59 222//59
f 243//60 252//60 197//60
f 64//61 55//61 103//61
f 108//62 255//62 84//62
f 256//63 57//63 104//63
f 257//64 255//64 138//64
f 258//65 58//65 134//65
f 259//66 257//66 168//66
f 164//67 260//67 193//67
f 198//68 261//68 168//68
f 262//74 60//74 194//74
f 263//70 261//70 234//70
f 264//71 254//71 224//71
f 253//72 263//72 84//72
