# Blender v2.73 (sub 0) OBJ File: 'Pyramid.blend'
# www.blender.org
mtllib PyramidWireframe.mtl
o Cone.001
v 0.000000 -97.257370 -98.784515
v 0.000000 -100.000000 -100.000000
v -97.257370 0.000004 -98.784515
v -100.000000 0.000004 -100.000000
v 0.000009 97.257370 -98.784515
v 0.000009 100.000000 -100.000000
v 0.000000 0.000000 97.000000
v 0.000000 0.000000 100.000000
v 97.257370 -0.000001 -98.784515
v 100.000000 -0.000001 -100.000000
v 1.118043 96.803543 -97.978043
v 1.118034 1.118034 94.027863
v 96.803543 1.118033 -97.978043
v -1.118034 -96.803543 -97.978043
v -1.118034 -1.118034 94.027863
v -96.803543 -1.118029 -97.978043
v 96.803543 -1.118035 -97.978043
v 1.118034 -1.118034 94.027863
v 1.118034 -96.803543 -97.978043
v -96.803543 1.118038 -97.978043
v -1.118034 1.118034 94.027863
v -1.118025 96.803543 -97.978043
v 0.000000 -96.507362 -99.392258
v -96.507362 0.000004 -99.392258
v 0.000009 96.507362 -99.392258
v 96.507362 -0.000001 -99.392258
v 0.000009 97.257370 -98.784515
v 0.000009 97.257370 -98.784515
v 1.118043 96.803543 -97.978043
v 1.118043 96.803543 -97.978043
v 1.118034 1.118034 94.027863
v 1.118034 1.118034 94.027863
v 1.118034 1.118034 94.027863
v 0.000000 0.000000 97.000000
v 0.000000 0.000000 97.000000
v 0.000000 0.000000 97.000000
v 0.000000 0.000000 100.000000
v 0.000000 0.000000 100.000000
v 0.000000 0.000000 100.000000
v 0.000000 0.000000 100.000000
v 0.000000 0.000000 100.000000
v 0.000000 0.000000 100.000000
v 0.000000 0.000000 100.000000
v 0.000009 100.000000 -100.000000
v 0.000009 100.000000 -100.000000
v 96.803543 1.118033 -97.978043
v 96.803543 1.118033 -97.978043
v 97.257370 -0.000001 -98.784515
v 97.257370 -0.000001 -98.784515
v 100.000000 -0.000001 -100.000000
v 100.000000 -0.000001 -100.000000
v 0.000000 -97.257370 -98.784515
v 0.000000 -97.257370 -98.784515
v -1.118034 -96.803543 -97.978043
v -1.118034 -96.803543 -97.978043
v -1.118034 -1.118034 94.027863
v -1.118034 -1.118034 94.027863
v -1.118034 -1.118034 94.027863
v 0.000000 -100.000000 -100.000000
v 0.000000 -100.000000 -100.000000
v -96.803543 -1.118029 -97.978043
v -96.803543 -1.118029 -97.978043
v -97.257370 0.000004 -98.784515
v -97.257370 0.000004 -98.784515
v -100.000000 0.000004 -100.000000
v -100.000000 0.000004 -100.000000
v 96.803543 -1.118035 -97.978043
v 96.803543 -1.118035 -97.978043
v 1.118034 -1.118034 94.027863
v 1.118034 -1.118034 94.027863
v 1.118034 -1.118034 94.027863
v 1.118034 -96.803543 -97.978043
v 1.118034 -96.803543 -97.978043
v -96.803543 1.118038 -97.978043
v -96.803543 1.118038 -97.978043
v -1.118034 1.118034 94.027863
v -1.118034 1.118034 94.027863
v -1.118034 1.118034 94.027863
v -1.118025 96.803543 -97.978043
v -1.118025 96.803543 -97.978043
v 0.000000 -96.507362 -99.392258
v 0.000000 -96.507362 -99.392258
v -96.507362 0.000004 -99.392258
v -96.507362 0.000004 -99.392258
v 0.000009 96.507362 -99.392258
v 0.000009 96.507362 -99.392258
v 96.507362 -0.000001 -99.392258
v 96.507362 -0.000001 -99.392258
vn -0.275500 -0.860900 -0.427700
vn -0.000000 -0.895600 -0.444900
vn -0.000000 -0.895000 -0.446000
vn 0.831200 0.497200 0.248600
vn 0.745200 0.522700 0.414200
vn 0.733000 0.528000 0.428800
vn -0.860900 -0.275500 -0.427700
vn -0.894200 -0.041500 -0.445600
vn -0.895000 0.000000 -0.446000
vn 0.497200 0.831200 0.248600
vn 0.497400 0.831100 0.248700
vn 0.528000 0.733000 0.428800
vn -0.611000 -0.611000 0.503300
vn -0.567700 -0.567700 0.596300
vn 0.522700 0.745200 0.414200
vn 0.275500 0.860900 -0.427700
vn 0.000000 0.895600 -0.444900
vn 0.000000 0.895000 -0.446000
vn -0.831200 -0.497200 0.248600
vn -0.745100 -0.522700 0.414200
vn -0.733000 -0.528000 0.428800
vn 0.860900 0.275500 -0.427700
vn 0.894200 0.041500 -0.445600
vn 0.895000 -0.000000 -0.446000
vn -0.497200 -0.831200 0.248600
vn -0.497400 -0.831100 0.248700
vn -0.528000 -0.733000 0.428800
vn 0.611000 0.611000 0.503300
vn 0.567700 0.567700 0.596300
vn -0.522700 -0.745100 0.414200
vn -0.860900 0.275500 -0.427700
vn -0.895600 0.000000 -0.444900
vn 0.497200 -0.831200 0.248600
vn 0.522700 -0.745200 0.414200
vn 0.528000 -0.733000 0.428800
vn -0.275500 0.860900 -0.427700
vn -0.041500 0.894200 -0.445600
vn 0.831200 -0.497200 0.248600
vn 0.831100 -0.497400 0.248700
vn 0.733000 -0.528000 0.428800
vn -0.611000 0.611000 0.503200
vn -0.567700 0.567600 0.596300
vn -0.567700 0.567700 0.596300
vn 0.745100 -0.522700 0.414200
vn 0.860900 -0.275500 -0.427700
vn 0.895600 0.000000 -0.444900
vn -0.497200 0.831200 0.248600
vn -0.522700 0.745200 0.414200
vn -0.528000 0.733000 0.428800
vn 0.275500 -0.860900 -0.427700
vn 0.041500 -0.894200 -0.445600
vn -0.831200 0.497200 0.248600
vn -0.831100 0.497400 0.248700
vn -0.733000 0.528000 0.428800
vn 0.611000 -0.611000 0.503200
vn 0.567700 -0.567700 0.596300
vn -0.745100 0.522700 0.414200
vn 0.532800 0.532800 0.657500
vn 0.000000 0.171400 -0.985200
vn 0.171400 -0.000000 -0.985200
vn 0.532800 -0.532800 0.657500
vn -0.000000 -0.171400 -0.985200
vn -0.532800 -0.532800 0.657500
vn -0.171400 0.000000 -0.985200
vn -0.532800 0.532800 0.657500
vn -0.041500 -0.894200 -0.445600
vn 0.831100 0.497400 0.248700
vn -0.611000 -0.611000 0.503200
vn 0.041500 0.894200 -0.445600
vn -0.831100 -0.497400 0.248700
vn 0.611000 0.611000 0.503200
vn -0.894200 0.041500 -0.445600
vn 0.497400 -0.831100 0.248700
vn -0.611000 0.611000 0.503300
vn 0.894200 -0.041500 -0.445600
vn -0.497400 0.831100 0.248700
vn 0.611000 -0.611000 0.503300
g Cone.001_Cone.001_None
usemtl None
s 1
f 12//1 7//2 5//3
f 31//4 29//5 6//6
f 32//7 13//8 9//9
f 33//10 37//11 10//12
f 30//13 27//14 48//14
f 29//5 46//15 10//12
f 15//16 35//17 1//18
f 56//19 54//20 2//21
f 57//22 16//23 3//24
f 58//25 39//26 4//27
f 55//28 52//29 63//29
f 61//30 4//27 2//21
f 18//31 34//32 9//9
f 69//33 67//34 50//35
f 70//36 19//37 1//18
f 71//38 43//39 59//40
f 68//41 49//42 53//43
f 72//44 59//40 50//35
f 21//45 36//46 3//24
f 76//47 74//48 65//49
f 77//50 22//51 5//3
f 78//52 42//53 44//54
f 75//55 64//56 28//56
f 79//57 44//54 65//49
f 24//58 63//29 52//29
f 81//59 60//59 66//60
f 25//61 28//56 64//56
f 83//60 66//60 45//62
f 86//63 26//63 48//14
f 85//62 45//62 51//64
f 82//65 53//43 49//42
f 87//64 51//64 60//59
f 11//66 12//1 5//3
f 8//67 31//4 6//6
f 34//32 32//7 9//9
f 46//15 33//10 10//12
f 47//68 30//13 48//14
f 6//6 29//5 10//12
f 14//69 15//16 1//18
f 38//70 56//19 2//21
f 36//46 57//22 3//24
f 61//30 58//25 4//27
f 62//71 55//28 63//29
f 54//20 61//30 2//21
f 17//72 18//31 9//9
f 40//73 69//33 50//35
f 35//17 70//36 1//18
f 72//44 71//38 59//40
f 73//74 68//41 53//43
f 67//34 72//44 50//35
f 20//75 21//45 3//24
f 41//76 76//47 65//49
f 7//2 77//50 5//3
f 79//57 78//52 44//54
f 80//77 75//55 28//56
f 74//48 79//57 65//49
f 23//58 24//58 52//29
f 83//60 81//59 66//60
f 84//61 25//61 64//56
f 85//62 83//60 45//62
f 27//14 86//63 48//14
f 87//64 85//62 51//64
f 88//65 82//65 49//42
f 81//59 87//64 60//59
