# Blender v2.73 (sub 0) OBJ File: 'PlaneShapes.blend'
# www.blender.org
mtllib DecagonPlaneWireframe.mtl
o Cylinder.009_Cylinder.013
v 0.000000 -100.000000 -1.000000
v 0.000000 -100.000000 1.000000
v -58.778526 -80.901703 -1.000000
v -58.778526 -80.901703 1.000000
v -95.105652 -30.901697 -1.000000
v -95.105652 -30.901697 1.000000
v -95.105652 30.901703 -1.000000
v -95.105652 30.901703 1.000000
v -58.778519 80.901703 -1.000000
v -58.778519 80.901703 1.000000
v 0.000009 100.000000 -1.000000
v 0.000009 100.000000 1.000000
v 58.778538 80.901695 -1.000000
v 58.778538 80.901695 1.000000
v 95.105652 30.901709 -1.000000
v 95.105652 30.901709 1.000000
v 95.105652 -30.901712 -1.000000
v 95.105652 -30.901712 1.000000
v 58.778496 -80.901726 -1.000000
v 58.778496 -80.901726 1.000000
v 0.000000 -98.948540 0.000000
v -0.000000 -101.051460 0.000000
v 59.396530 -81.752380 0.000000
v 58.160461 -80.051071 0.000000
v 96.105652 -31.226633 0.000000
v 94.105652 -30.576792 0.000000
v 96.105652 31.226627 0.000000
v 94.105652 30.576790 0.000000
v 59.396572 81.752342 0.000000
v 58.160503 80.051048 0.000000
v 0.000009 101.051460 0.000000
v 0.000009 98.948540 0.000000
v -59.396553 81.752357 0.000000
v -58.160484 80.051056 0.000000
v -96.105652 31.226624 0.000000
v -94.105652 30.576782 0.000000
v -96.105652 -31.226616 0.000000
v -94.105652 -30.576778 0.000000
v -59.396561 -81.752350 0.000000
v -58.160492 -80.051056 0.000000
v 0.000000 -98.948540 0.000000
v 58.160461 -80.051071 0.000000
v 58.778496 -80.901726 -1.000000
v 0.000000 -100.000000 -1.000000
v 0.000000 -100.000000 1.000000
v 58.778496 -80.901726 1.000000
v 59.396530 -81.752380 0.000000
v -0.000000 -101.051460 0.000000
v 94.105652 -30.576792 0.000000
v 95.105652 -30.901712 -1.000000
v 95.105652 -30.901712 1.000000
v 96.105652 -31.226633 0.000000
v 94.105652 30.576790 0.000000
v 95.105652 30.901709 -1.000000
v 95.105652 30.901709 1.000000
v 96.105652 31.226627 0.000000
v 58.160503 80.051048 0.000000
v 58.778538 80.901695 -1.000000
v 58.778538 80.901695 1.000000
v 59.396572 81.752342 0.000000
v 0.000009 98.948540 0.000000
v 0.000009 100.000000 -1.000000
v 0.000009 100.000000 1.000000
v 0.000009 101.051460 0.000000
v -58.160484 80.051056 0.000000
v -58.778519 80.901703 -1.000000
v -58.778519 80.901703 1.000000
v -59.396553 81.752357 0.000000
v -94.105652 30.576782 0.000000
v -95.105652 30.901703 -1.000000
v -95.105652 30.901703 1.000000
v -96.105652 31.226624 0.000000
v -94.105652 -30.576778 0.000000
v -95.105652 -30.901697 -1.000000
v -95.105652 -30.901697 1.000000
v -96.105652 -31.226616 0.000000
v -58.160492 -80.051056 0.000000
v -58.778526 -80.901703 -1.000000
v -58.778526 -80.901703 1.000000
v -59.396561 -81.752350 0.000000
vn -0.218500 0.672500 -0.707100
vn -0.218500 0.672500 0.707100
vn 0.218500 -0.672500 -0.707100
vn 0.218500 -0.672500 0.707100
vn -0.572100 0.415600 -0.707100
vn -0.572100 0.415600 0.707100
vn 0.572100 -0.415600 -0.707100
vn 0.572100 -0.415600 0.707100
vn -0.707100 0.000000 -0.707100
vn -0.707100 0.000000 0.707100
vn 0.707100 0.000000 -0.707100
vn 0.707100 0.000000 0.707100
vn -0.572100 -0.415600 -0.707100
vn -0.572100 -0.415600 0.707100
vn 0.572100 0.415600 -0.707100
vn 0.572100 0.415600 0.707100
vn -0.218500 -0.672500 -0.707100
vn -0.218500 -0.672500 0.707100
vn 0.218500 0.672500 -0.707100
vn 0.218500 0.672500 0.707100
g Cylinder.009_Cylinder.013_None
usemtl None
s off
f 24//1 19//1 1//1
f 42//2 41//2 2//2
f 22//3 44//3 43//3
f 47//4 46//4 45//4
f 26//5 17//5 19//5
f 42//6 20//6 18//6
f 25//7 23//7 43//7
f 52//8 51//8 46//8
f 28//9 15//9 17//9
f 49//10 18//10 16//10
f 25//11 50//11 54//11
f 56//12 55//12 51//12
f 28//13 30//13 13//13
f 53//14 16//14 14//14
f 29//15 27//15 54//15
f 60//16 59//16 55//16
f 32//17 11//17 13//17
f 57//18 14//18 12//18
f 31//19 29//19 58//19
f 64//20 63//20 59//20
f 34//3 9//3 11//3
f 61//4 12//4 10//4
f 31//1 62//1 66//1
f 64//2 68//2 67//2
f 36//7 7//7 9//7
f 69//8 65//8 10//8
f 35//5 33//5 66//5
f 72//6 71//6 67//6
f 36//11 38//11 5//11
f 69//12 8//12 6//12
f 35//9 70//9 74//9
f 76//10 75//10 71//10
f 38//15 40//15 3//15
f 73//16 6//16 4//16
f 39//13 37//13 74//13
f 80//14 79//14 75//14
f 21//19 1//19 3//19
f 77//20 4//20 2//20
f 22//17 39//17 78//17
f 48//18 45//18 79//18
f 21//1 24//1 1//1
f 20//2 42//2 2//2
f 23//3 22//3 43//3
f 48//4 47//4 45//4
f 24//5 26//5 19//5
f 49//6 42//6 18//6
f 50//7 25//7 43//7
f 47//8 52//8 46//8
f 26//9 28//9 17//9
f 53//10 49//10 16//10
f 27//11 25//11 54//11
f 52//12 56//12 51//12
f 15//13 28//13 13//13
f 57//14 53//14 14//14
f 58//15 29//15 54//15
f 56//16 60//16 55//16
f 30//17 32//17 13//17
f 61//18 57//18 12//18
f 62//19 31//19 58//19
f 60//20 64//20 59//20
f 32//3 34//3 11//3
f 65//4 61//4 10//4
f 33//1 31//1 66//1
f 63//2 64//2 67//2
f 34//7 36//7 9//7
f 8//8 69//8 10//8
f 70//5 35//5 66//5
f 68//6 72//6 67//6
f 7//11 36//11 5//11
f 73//12 69//12 6//12
f 37//9 35//9 74//9
f 72//10 76//10 71//10
f 5//15 38//15 3//15
f 77//16 73//16 4//16
f 78//13 39//13 74//13
f 76//14 80//14 75//14
f 40//19 21//19 3//19
f 41//20 77//20 2//20
f 44//17 22//17 78//17
f 80//18 48//18 79//18
