# Blender v2.73 (sub 0) OBJ File: 'PlaneShapes.blend'
# www.blender.org
mtllib HexagonPlaneWireframe.mtl
o Cylinder.007_Cylinder.011
v 0.000000 -1.000000 -100.000000
v 0.000000 1.000000 -100.000000
v 86.602547 -1.000000 -49.999996
v 86.602547 1.000000 -49.999996
v 86.602539 -1.000000 50.000008
v 86.602539 1.000000 50.000008
v -0.000009 -1.000000 100.000000
v -0.000009 1.000000 100.000000
v -86.602547 -1.000000 49.999992
v -86.602547 1.000000 49.999992
v -86.602547 -1.000000 -49.999992
v -86.602547 1.000000 -49.999992
v 0.000000 0.000000 -98.845299
v -0.000000 0.000000 -101.154701
v -87.602547 0.000000 -50.577343
v -85.602547 0.000000 -49.422642
v -87.602547 0.000000 50.577343
v -85.602547 0.000000 49.422642
v -0.000009 0.000000 101.154701
v -0.000009 0.000000 98.845299
v 87.602539 0.000000 50.577358
v 85.602539 0.000000 49.422657
v 87.602547 0.000000 -50.577347
v 85.602547 0.000000 -49.422646
v 0.000000 -1.000000 -100.000000
v 0.000000 -1.000000 -100.000000
v 0.000000 -1.000000 -100.000000
v 0.000000 0.000000 -98.845299
v 0.000000 0.000000 -98.845299
v 0.000000 0.000000 -98.845299
v -85.602547 0.000000 -49.422642
v -85.602547 0.000000 -49.422642
v -85.602547 0.000000 -49.422642
v -86.602547 -1.000000 -49.999992
v -86.602547 -1.000000 -49.999992
v -86.602547 -1.000000 -49.999992
v -86.602547 1.000000 -49.999992
v -86.602547 1.000000 -49.999992
v -86.602547 1.000000 -49.999992
v 0.000000 1.000000 -100.000000
v 0.000000 1.000000 -100.000000
v 0.000000 1.000000 -100.000000
v -87.602547 0.000000 -50.577343
v -87.602547 0.000000 -50.577343
v -87.602547 0.000000 -50.577343
v -0.000000 0.000000 -101.154701
v -0.000000 0.000000 -101.154701
v -0.000000 0.000000 -101.154701
v -85.602547 0.000000 49.422642
v -85.602547 0.000000 49.422642
v -85.602547 0.000000 49.422642
v -86.602547 -1.000000 49.999992
v -86.602547 -1.000000 49.999992
v -86.602547 -1.000000 49.999992
v -86.602547 1.000000 49.999992
v -86.602547 1.000000 49.999992
v -86.602547 1.000000 49.999992
v -87.602547 0.000000 50.577343
v -87.602547 0.000000 50.577343
v -87.602547 0.000000 50.577343
v -0.000009 0.000000 98.845299
v -0.000009 0.000000 98.845299
v -0.000009 0.000000 98.845299
v -0.000009 -1.000000 100.000000
v -0.000009 -1.000000 100.000000
v -0.000009 -1.000000 100.000000
v -0.000009 1.000000 100.000000
v -0.000009 1.000000 100.000000
v -0.000009 1.000000 100.000000
v -0.000009 0.000000 101.154701
v -0.000009 0.000000 101.154701
v -0.000009 0.000000 101.154701
v 85.602539 0.000000 49.422657
v 85.602539 0.000000 49.422657
v 85.602539 0.000000 49.422657
v 86.602539 -1.000000 50.000008
v 86.602539 -1.000000 50.000008
v 86.602539 -1.000000 50.000008
v 86.602539 1.000000 50.000008
v 86.602539 1.000000 50.000008
v 86.602539 1.000000 50.000008
v 87.602539 0.000000 50.577358
v 87.602539 0.000000 50.577358
v 87.602539 0.000000 50.577358
v 85.602547 0.000000 -49.422646
v 85.602547 0.000000 -49.422646
v 85.602547 0.000000 -49.422646
v 86.602547 -1.000000 -49.999996
v 86.602547 -1.000000 -49.999996
v 86.602547 -1.000000 -49.999996
v 86.602547 1.000000 -49.999996
v 86.602547 1.000000 -49.999996
v 86.602547 1.000000 -49.999996
v 87.602547 0.000000 -50.577347
v 87.602547 0.000000 -50.577347
v 87.602547 0.000000 -50.577347
vn 0.353600 -0.707100 0.612400
vn 0.353600 0.707100 0.612400
vn -0.353600 -0.707100 -0.612400
vn -0.353600 0.707100 -0.612400
vn 0.707100 -0.707100 0.000000
vn 0.707100 0.707100 0.000000
vn -0.707100 -0.707100 0.000000
vn -0.707100 0.707100 0.000000
vn 0.353600 -0.707100 -0.612400
vn 0.353600 0.707100 -0.612400
vn -0.353600 -0.707100 0.612400
vn -0.353600 0.707100 0.612400
g Cylinder.007_Cylinder.011_None
usemtl None
s off
f 16//1 11//1 1//1
f 28//2 2//2 12//2
f 14//3 25//3 34//3
f 43//4 37//4 40//4
f 18//5 9//5 35//5
f 33//6 38//6 10//6
f 44//7 36//7 52//7
f 58//8 55//8 39//8
f 20//9 7//9 53//9
f 51//10 56//10 8//10
f 59//11 54//11 64//11
f 70//12 67//12 57//12
f 22//3 5//3 65//3
f 63//4 68//4 6//4
f 71//1 66//1 76//1
f 82//2 79//2 69//2
f 24//7 3//7 77//7
f 75//8 80//8 4//8
f 83//5 78//5 88//5
f 94//6 91//6 81//6
f 29//11 26//11 89//11
f 30//12 87//12 92//12
f 95//9 90//9 27//9
f 48//10 42//10 93//10
f 13//1 16//1 1//1
f 31//2 28//2 12//2
f 15//3 14//3 34//3
f 46//4 43//4 40//4
f 32//5 18//5 35//5
f 49//6 33//6 10//6
f 17//7 44//7 52//7
f 45//8 58//8 39//8
f 50//9 20//9 53//9
f 61//10 51//10 8//10
f 19//11 59//11 64//11
f 60//12 70//12 57//12
f 62//3 22//3 65//3
f 73//4 63//4 6//4
f 21//1 71//1 76//1
f 72//2 82//2 69//2
f 74//7 24//7 77//7
f 85//8 75//8 4//8
f 23//5 83//5 88//5
f 84//6 94//6 81//6
f 86//11 29//11 89//11
f 41//12 30//12 92//12
f 47//9 95//9 27//9
f 96//10 48//10 93//10
