# Blender v2.73 (sub 0) OBJ File: 'PlaneShapes.blend'
# www.blender.org
mtllib OctagonPlaneWireframe.mtl
o Cylinder.008_Cylinder.012
v 0.000000 -100.000000 -1.000000
v 0.000000 -100.000000 1.000000
v -70.710678 -70.710678 -1.000000
v -70.710678 -70.710678 1.000000
v -100.000000 0.000004 -1.000000
v -100.000000 0.000004 1.000000
v -70.710678 70.710678 -1.000000
v -70.710678 70.710678 1.000000
v 0.000009 100.000000 -1.000000
v 0.000009 100.000000 1.000000
v 70.710686 70.710663 -1.000000
v 70.710686 70.710663 1.000000
v 100.000000 -0.000001 -1.000000
v 100.000000 -0.000001 1.000000
v 70.710686 -70.710670 -1.000000
v 70.710686 -70.710670 1.000000
v -0.000000 -98.917610 0.000000
v 0.000000 -101.082390 0.000000
v 71.476051 -71.476036 0.000000
v 69.945320 -69.945305 0.000000
v 101.082390 -0.000001 0.000000
v 98.917610 -0.000001 0.000000
v 71.476051 71.476028 0.000000
v 69.945320 69.945297 0.000000
v 0.000009 101.082390 0.000000
v 0.000009 98.917610 0.000000
v -71.476044 71.476044 0.000000
v -69.945312 69.945312 0.000000
v -101.082390 0.000004 0.000000
v -98.917610 0.000004 0.000000
v -71.476044 -71.476044 0.000000
v -69.945312 -69.945312 0.000000
v 0.000000 -100.000000 -1.000000
v 0.000000 -100.000000 -1.000000
v 0.000000 -100.000000 -1.000000
v -0.000000 -98.917610 0.000000
v -0.000000 -98.917610 0.000000
v -0.000000 -98.917610 0.000000
v 69.945320 -69.945305 0.000000
v 69.945320 -69.945305 0.000000
v 69.945320 -69.945305 0.000000
v 70.710686 -70.710670 -1.000000
v 70.710686 -70.710670 -1.000000
v 70.710686 -70.710670 -1.000000
v 70.710686 -70.710670 1.000000
v 70.710686 -70.710670 1.000000
v 70.710686 -70.710670 1.000000
v 0.000000 -100.000000 1.000000
v 0.000000 -100.000000 1.000000
v 0.000000 -100.000000 1.000000
v 71.476051 -71.476036 0.000000
v 71.476051 -71.476036 0.000000
v 71.476051 -71.476036 0.000000
v 0.000000 -101.082390 0.000000
v 0.000000 -101.082390 0.000000
v 0.000000 -101.082390 0.000000
v 98.917610 -0.000001 0.000000
v 98.917610 -0.000001 0.000000
v 98.917610 -0.000001 0.000000
v 100.000000 -0.000001 -1.000000
v 100.000000 -0.000001 -1.000000
v 100.000000 -0.000001 -1.000000
v 100.000000 -0.000001 1.000000
v 100.000000 -0.000001 1.000000
v 100.000000 -0.000001 1.000000
v 101.082390 -0.000001 0.000000
v 101.082390 -0.000001 0.000000
v 101.082390 -0.000001 0.000000
v 69.945320 69.945297 0.000000
v 69.945320 69.945297 0.000000
v 69.945320 69.945297 0.000000
v 70.710686 70.710663 -1.000000
v 70.710686 70.710663 -1.000000
v 70.710686 70.710663 -1.000000
v 70.710686 70.710663 1.000000
v 70.710686 70.710663 1.000000
v 70.710686 70.710663 1.000000
v 71.476051 71.476028 0.000000
v 71.476051 71.476028 0.000000
v 71.476051 71.476028 0.000000
v 0.000009 98.917610 0.000000
v 0.000009 98.917610 0.000000
v 0.000009 98.917610 0.000000
v 0.000009 100.000000 -1.000000
v 0.000009 100.000000 -1.000000
v 0.000009 100.000000 -1.000000
v 0.000009 100.000000 1.000000
v 0.000009 100.000000 1.000000
v 0.000009 100.000000 1.000000
v 0.000009 101.082390 0.000000
v 0.000009 101.082390 0.000000
v 0.000009 101.082390 0.000000
v -69.945312 69.945312 0.000000
v -69.945312 69.945312 0.000000
v -69.945312 69.945312 0.000000
v -70.710678 70.710678 -1.000000
v -70.710678 70.710678 -1.000000
v -70.710678 70.710678 -1.000000
v -70.710678 70.710678 1.000000
v -70.710678 70.710678 1.000000
v -70.710678 70.710678 1.000000
v -71.476044 71.476044 0.000000
v -71.476044 71.476044 0.000000
v -71.476044 71.476044 0.000000
v -98.917610 0.000004 0.000000
v -98.917610 0.000004 0.000000
v -98.917610 0.000004 0.000000
v -100.000000 0.000004 -1.000000
v -100.000000 0.000004 -1.000000
v -100.000000 0.000004 -1.000000
v -100.000000 0.000004 1.000000
v -100.000000 0.000004 1.000000
v -100.000000 0.000004 1.000000
v -101.082390 0.000004 0.000000
v -101.082390 0.000004 0.000000
v -101.082390 0.000004 0.000000
v -69.945312 -69.945312 0.000000
v -69.945312 -69.945312 0.000000
v -69.945312 -69.945312 0.000000
v -70.710678 -70.710678 -1.000000
v -70.710678 -70.710678 -1.000000
v -70.710678 -70.710678 -1.000000
v -70.710678 -70.710678 1.000000
v -70.710678 -70.710678 1.000000
v -70.710678 -70.710678 1.000000
v -71.476044 -71.476044 0.000000
v -71.476044 -71.476044 0.000000
v -71.476044 -71.476044 0.000000
vn -0.270600 0.653300 -0.707100
vn -0.270600 0.653300 0.707100
vn 0.270600 -0.653300 -0.707100
vn 0.270600 -0.653300 0.707100
vn -0.653300 0.270600 -0.707100
vn -0.653300 0.270600 0.707100
vn 0.653300 -0.270600 -0.707100
vn 0.653300 -0.270600 0.707100
vn -0.653300 -0.270600 -0.707100
vn -0.653300 -0.270600 0.707100
vn 0.653300 0.270600 -0.707100
vn 0.653300 0.270600 0.707100
vn -0.270600 -0.653300 -0.707100
vn -0.270600 -0.653300 0.707100
vn 0.270600 0.653300 -0.707100
vn 0.270600 0.653300 0.707100
g Cylinder.008_Cylinder.012_None
usemtl None
s off
f 20//1 15//1 1//1
f 36//2 2//2 16//2
f 18//3 33//3 42//3
f 51//4 45//4 48//4
f 40//5 22//5 13//5
f 41//6 46//6 14//6
f 52//7 44//7 60//7
f 66//8 63//8 47//8
f 24//9 11//9 61//9
f 69//10 59//10 64//10
f 67//11 62//11 72//11
f 78//12 75//12 65//12
f 26//13 9//13 73//13
f 71//14 76//14 10//14
f 79//15 74//15 84//15
f 80//16 90//16 87//16
f 28//3 7//3 85//3
f 83//4 88//4 8//4
f 91//1 86//1 96//1
f 102//2 99//2 89//2
f 30//7 5//7 97//7
f 95//8 100//8 6//8
f 103//5 98//5 108//5
f 114//6 111//6 101//6
f 32//11 3//11 109//11
f 107//12 112//12 4//12
f 115//9 110//9 120//9
f 126//10 123//10 113//10
f 37//15 34//15 121//15
f 119//16 124//16 49//16
f 127//13 122//13 35//13
f 56//14 50//14 125//14
f 17//1 20//1 1//1
f 39//2 36//2 16//2
f 19//3 18//3 42//3
f 54//4 51//4 48//4
f 43//5 40//5 13//5
f 57//6 41//6 14//6
f 21//7 52//7 60//7
f 53//8 66//8 47//8
f 58//9 24//9 61//9
f 12//10 69//10 64//10
f 23//11 67//11 72//11
f 68//12 78//12 65//12
f 70//13 26//13 73//13
f 81//14 71//14 10//14
f 25//15 79//15 84//15
f 77//16 80//16 87//16
f 82//3 28//3 85//3
f 93//4 83//4 8//4
f 27//1 91//1 96//1
f 92//2 102//2 89//2
f 94//7 30//7 97//7
f 105//8 95//8 6//8
f 29//5 103//5 108//5
f 104//6 114//6 101//6
f 106//11 32//11 109//11
f 117//12 107//12 4//12
f 31//9 115//9 120//9
f 116//10 126//10 113//10
f 118//15 37//15 121//15
f 38//16 119//16 49//16
f 55//13 127//13 35//13
f 128//14 56//14 125//14
