# Blender v2.73 (sub 0) OBJ File: 'PlaneShapes.blend'
# www.blender.org
mtllib PentagonPlaneWireframe.mtl
o Cylinder.001_Cylinder.010
v 0.000000 -100.000000 -0.999969
v 0.000000 -100.000000 0.999969
v -95.105652 -30.901697 -1.000000
v -95.105652 -30.901697 1.000000
v -58.778519 80.901703 -1.000000
v -58.778519 80.901703 1.000000
v 58.778538 80.901695 -1.000000
v 58.778538 80.901695 1.000000
v 95.105652 -30.901712 -0.999969
v 95.105652 -30.901712 0.999969
v 0.000000 -98.763931 0.000000
v -0.000000 -101.236069 0.000000
v 96.281219 -31.283678 0.000000
v 93.930084 -30.519747 0.000000
v 59.505081 81.901695 0.000000
v 58.051994 79.901695 0.000000
v -59.505062 81.901703 0.000000
v -58.051975 79.901703 0.000000
v -96.281219 -31.283663 0.000000
v -93.930084 -30.519732 0.000000
v 0.000000 -100.000000 -0.999969
v 0.000000 -100.000000 -0.999969
v 0.000000 -100.000000 -0.999969
v 0.000000 -98.763931 0.000000
v 0.000000 -98.763931 0.000000
v 0.000000 -98.763931 0.000000
v 93.930084 -30.519747 0.000000
v 93.930084 -30.519747 0.000000
v 93.930084 -30.519747 0.000000
v 95.105652 -30.901712 -0.999969
v 95.105652 -30.901712 -0.999969
v 95.105652 -30.901712 -0.999969
v 95.105652 -30.901712 0.999969
v 95.105652 -30.901712 0.999969
v 95.105652 -30.901712 0.999969
v 0.000000 -100.000000 0.999969
v 0.000000 -100.000000 0.999969
v 0.000000 -100.000000 0.999969
v 96.281219 -31.283678 0.000000
v 96.281219 -31.283678 0.000000
v 96.281219 -31.283678 0.000000
v -0.000000 -101.236069 0.000000
v -0.000000 -101.236069 0.000000
v -0.000000 -101.236069 0.000000
v 58.051994 79.901695 0.000000
v 58.051994 79.901695 0.000000
v 58.051994 79.901695 0.000000
v 58.778538 80.901695 -1.000000
v 58.778538 80.901695 -1.000000
v 58.778538 80.901695 -1.000000
v 58.778538 80.901695 1.000000
v 58.778538 80.901695 1.000000
v 58.778538 80.901695 1.000000
v 59.505081 81.901695 0.000000
v 59.505081 81.901695 0.000000
v 59.505081 81.901695 0.000000
v -58.051975 79.901703 0.000000
v -58.051975 79.901703 0.000000
v -58.051975 79.901703 0.000000
v -58.778519 80.901703 -1.000000
v -58.778519 80.901703 -1.000000
v -58.778519 80.901703 -1.000000
v -58.778519 80.901703 1.000000
v -58.778519 80.901703 1.000000
v -58.778519 80.901703 1.000000
v -59.505062 81.901703 0.000000
v -59.505062 81.901703 0.000000
v -59.505062 81.901703 0.000000
v -93.930084 -30.519732 0.000000
v -93.930084 -30.519732 0.000000
v -93.930084 -30.519732 0.000000
v -95.105652 -30.901697 -1.000000
v -95.105652 -30.901697 -1.000000
v -95.105652 -30.901697 -1.000000
v -95.105652 -30.901697 1.000000
v -95.105652 -30.901697 1.000000
v -95.105652 -30.901697 1.000000
v -96.281219 -31.283663 0.000000
v -96.281219 -31.283663 0.000000
v -96.281219 -31.283663 0.000000
vn -0.415600 0.572100 -0.707100
vn -0.415600 0.572100 0.707100
vn 0.415600 -0.572100 -0.707100
vn 0.415600 -0.572100 0.707100
vn -0.672500 -0.218500 -0.707100
vn -0.672500 -0.218500 0.707100
vn 0.672500 0.218500 -0.707100
vn 0.672500 0.218500 0.707100
vn -0.000000 -0.707100 -0.707100
vn -0.000000 -0.707100 0.707100
vn 0.000000 0.707100 -0.707100
vn 0.000000 0.707100 0.707100
vn 0.672500 -0.218500 -0.707100
vn 0.672500 -0.218500 0.707100
vn -0.672500 0.218500 -0.707100
vn -0.672500 0.218500 0.707100
vn 0.415600 0.572100 -0.707100
vn 0.415600 0.572100 0.707100
vn -0.415600 -0.572100 -0.707100
vn -0.415600 -0.572100 0.707100
g Cylinder.001_Cylinder.010_None
usemtl None
s off
f 14//1 9//1 1//1
f 24//2 2//2 10//2
f 13//3 12//3 21//3
f 39//4 33//4 36//4
f 16//5 7//5 31//5
f 29//6 34//6 8//6
f 40//7 32//7 48//7
f 54//8 51//8 35//8
f 18//9 5//9 49//9
f 47//10 52//10 6//10
f 55//11 50//11 60//11
f 66//12 63//12 53//12
f 58//13 20//13 3//13
f 59//14 64//14 4//14
f 19//15 67//15 62//15
f 78//16 75//16 65//16
f 25//17 22//17 73//17
f 71//18 76//18 37//18
f 79//19 74//19 23//19
f 80//20 44//20 38//20
f 11//1 14//1 1//1
f 27//2 24//2 10//2
f 30//3 13//3 21//3
f 42//4 39//4 36//4
f 28//5 16//5 31//5
f 45//6 29//6 8//6
f 15//7 40//7 48//7
f 41//8 54//8 35//8
f 46//9 18//9 49//9
f 57//10 47//10 6//10
f 17//11 55//11 60//11
f 56//12 66//12 53//12
f 61//13 58//13 3//13
f 69//14 59//14 4//14
f 72//15 19//15 62//15
f 68//16 78//16 65//16
f 70//17 25//17 73//17
f 26//18 71//18 37//18
f 43//19 79//19 23//19
f 77//20 80//20 38//20
