# Blender v2.73 (sub 0) OBJ File: 'CubeHollow.blend'
# www.blender.org
mtllib CubeHollow2SidesInverted.mtl
o Cube.005_Cube.000
v -100.000000 100.000000 100.000000
v -100.000000 100.000000 -100.000000
v -100.000000 -100.000000 -100.000000
v -100.000000 -100.000000 100.000000
v 100.000000 100.000000 100.000000
v 100.000000 -100.000000 100.000000
v -90.000000 100.000000 90.000000
v -90.000000 100.000000 -90.000000
v 90.000000 100.000000 -90.000000
v 100.000000 100.000000 -100.000000
v 90.000000 100.000000 90.000000
v 100.000000 -100.000000 -100.000000
v -90.000000 -100.000000 90.000000
v 90.000000 -100.000000 90.000000
v 90.000000 -100.000000 -90.000000
v -90.000000 -100.000000 -90.000000
v -100.000000 100.000000 -100.000000
v -100.000000 100.000000 -100.000000
v -100.000000 -100.000000 -100.000000
v -100.000000 -100.000000 -100.000000
v -100.000000 -100.000000 100.000000
v -100.000000 -100.000000 100.000000
v -100.000000 100.000000 100.000000
v -100.000000 100.000000 100.000000
v 100.000000 -100.000000 100.000000
v 100.000000 -100.000000 100.000000
v 100.000000 100.000000 100.000000
v 100.000000 100.000000 100.000000
v -90.000000 100.000000 90.000000
v -90.000000 100.000000 90.000000
v -90.000000 100.000000 -90.000000
v -90.000000 100.000000 -90.000000
v 90.000000 100.000000 -90.000000
v 90.000000 100.000000 -90.000000
v 100.000000 100.000000 -100.000000
v 100.000000 100.000000 -100.000000
v 90.000000 100.000000 90.000000
v 90.000000 100.000000 90.000000
v -90.000000 -100.000000 90.000000
v -90.000000 -100.000000 90.000000
v 90.000000 -100.000000 90.000000
v 90.000000 -100.000000 90.000000
v 90.000000 -100.000000 -90.000000
v 90.000000 -100.000000 -90.000000
v 100.000000 -100.000000 -100.000000
v 100.000000 -100.000000 -100.000000
v -90.000000 -100.000000 -90.000000
v -90.000000 -100.000000 -90.000000
vt 0.278109 0.834328
vt 0.278109 0.556965
vt 0.000746 0.556965
vt 0.556965 0.556965
vt 0.556965 0.279602
vt 0.279602 0.279602
vt 0.558458 0.279602
vt 0.558457 0.556966
vt 0.572326 0.543098
vt 0.572326 0.293470
vt 0.821954 0.293470
vt 0.835822 0.279602
vt 0.278109 0.279602
vt 0.000746 0.279602
vt 0.821954 0.543098
vt 0.835822 0.556966
vt 0.556965 0.834328
vt 0.279602 0.556965
vt 0.000746 0.278109
vt 0.250373 0.278109
vt 0.250373 0.000746
vt 0.749627 0.278109
vt 0.999254 0.278109
vt 0.999254 0.000746
vt 0.500000 0.278109
vt 0.500000 0.000746
vt 0.749627 0.000746
vt 0.821954 0.821955
vt 0.835822 0.835823
vt 0.835822 0.558459
vt 0.558457 0.835823
vt 0.572326 0.572327
vt 0.558458 0.558459
vt 0.000746 0.834328
vt 0.279602 0.834328
vt 0.000746 0.000746
vt 0.821954 0.572327
vt 0.572326 0.821955
vn 1.000000 0.000000 0.000000
vn 0.000000 0.000000 -1.000000
vn 0.000000 -1.000000 0.000000
vn 0.000000 0.000000 1.000000
vn -1.000000 0.000000 0.000000
vn 0.000000 1.000000 0.000000
g Cube.005_Cube.000_None
usemtl None
s 1
f 4/1/1 3/2/1 2/3/1
f 6/4/2 22/5/2 23/6/2
f 24/7/3 18/8/3 8/9/3
f 7/10/3 11/11/3 27/12/3
f 20/2/4 46/13/4 10/14/4
f 11/11/3 9/15/3 35/16/3
f 18/8/3 35/16/3 9/15/3
f 45/17/5 26/4/5 28/18/5
f 48/19/5 40/20/5 29/21/5
f 44/22/2 47/23/2 32/24/2
f 39/20/4 41/25/4 37/26/4
f 42/25/1 43/22/1 34/27/1
f 16/28/6 19/29/6 21/30/6
f 12/31/6 19/29/6 16/28/6
f 14/32/6 25/33/6 12/31/6
f 21/30/6 25/33/6 14/32/6
f 1/34/1 4/1/1 2/3/1
f 5/18/2 6/4/2 23/6/2
f 7/10/3 24/7/3 8/9/3
f 24/7/3 7/10/3 27/12/3
f 17/3/4 20/2/4 10/14/4
f 27/12/3 11/11/3 35/16/3
f 8/9/3 18/8/3 9/15/3
f 36/35/5 45/17/5 28/18/5
f 31/36/5 48/19/5 29/21/5
f 33/27/2 44/22/2 32/24/2
f 30/21/4 39/20/4 37/26/4
f 38/26/1 42/25/1 34/27/1
f 13/37/6 16/28/6 21/30/6
f 15/38/6 12/31/6 16/28/6
f 15/38/6 14/32/6 12/31/6
f 13/37/6 21/30/6 14/32/6
