# Blender v2.73 (sub 0) OBJ File: 'CylindersHollow.blend'
# www.blender.org
mtllib CylinderHollowOpenInverted.mtl
o Cylinder.007
v 0.000000 -100.000000 -100.000000
v 0.000000 -100.000000 100.000000
v -19.509033 -98.078522 -100.000000
v -19.509033 -98.078522 100.000000
v -38.268345 -92.387947 -100.000000
v -38.268345 -92.387947 100.000000
v -55.557026 -83.146957 -100.000000
v -55.557026 -83.146957 100.000000
v -70.710678 -70.710678 -100.000000
v -70.710678 -70.710678 100.000000
v -83.146965 -55.557018 -100.000000
v -83.146965 -55.557018 100.000000
v -92.387947 -38.268341 -100.000000
v -92.387947 -38.268341 100.000000
v -98.078522 -19.509035 -100.000000
v -98.078522 -19.509035 100.000000
v -100.000000 -0.000008 -100.000000
v -100.000000 -0.000008 100.000000
v -98.078529 19.509020 -100.000000
v -98.078529 19.509020 100.000000
v -92.387955 38.268326 -100.000000
v -92.387955 38.268326 100.000000
v -83.146965 55.557018 -100.000000
v -83.146965 55.557018 100.000000
v -70.710678 70.710678 -100.000000
v -70.710678 70.710678 100.000000
v -55.557018 83.146965 -100.000000
v -55.557018 83.146965 100.000000
v -38.268326 92.387962 -100.000000
v -38.268326 92.387962 100.000000
v -19.509008 98.078529 -100.000000
v -19.509008 98.078529 100.000000
v 0.000033 100.000000 -100.000000
v 0.000033 100.000000 100.000000
v 19.509073 98.078522 -100.000000
v 19.509073 98.078522 100.000000
v 38.268387 92.387932 -100.000000
v 38.268387 92.387932 100.000000
v 55.557072 83.146927 -100.000000
v 55.557072 83.146927 100.000000
v 70.710724 70.710632 -100.000000
v 70.710724 70.710632 100.000000
v 83.147003 55.556965 -100.000000
v 83.147003 55.556965 100.000000
v 92.387985 38.268269 -100.000000
v 92.387985 38.268269 100.000000
v 98.078545 19.508945 -100.000000
v 98.078545 19.508945 100.000000
v 100.000000 -0.000097 -100.000000
v 100.000000 -0.000097 100.000000
v 98.078506 -19.509134 -100.000000
v 98.078506 -19.509134 100.000000
v 92.387909 -38.268448 -100.000000
v 92.387909 -38.268448 100.000000
v 83.146896 -55.557125 -100.000000
v 83.146896 -55.557125 100.000000
v 70.710587 -70.710770 -100.000000
v 70.710587 -70.710770 100.000000
v 55.556911 -83.147034 -100.000000
v 55.556911 -83.147034 100.000000
v 38.268208 -92.388008 -100.000000
v 38.268208 -92.388008 100.000000
v 19.508883 -98.078552 -100.000000
v 19.508883 -98.078552 100.000000
v -0.000001 -90.000000 100.000000
v -17.558130 -88.270668 100.000000
v -34.441509 -83.149155 100.000000
v -50.001324 -74.832260 100.000000
v -63.639614 -63.639606 100.000000
v -74.832268 -50.001316 100.000000
v -83.149155 -34.441509 100.000000
v -88.270668 -17.558134 100.000000
v -90.000000 -0.000009 100.000000
v -88.270676 17.558115 100.000000
v -83.149155 34.441490 100.000000
v -74.832268 50.001312 100.000000
v -63.639614 63.639610 100.000000
v -50.001316 74.832260 100.000000
v -34.441494 83.149162 100.000000
v -17.558107 88.270668 100.000000
v 0.000028 89.999992 100.000000
v 17.558165 88.270660 100.000000
v 34.441547 83.149132 100.000000
v 50.001362 74.832230 100.000000
v 63.639645 63.639568 100.000000
v 74.832298 50.001263 100.000000
v 83.149185 34.441437 100.000000
v 88.270683 17.558048 100.000000
v 90.000000 -0.000090 100.000000
v 88.270653 -17.558224 100.000000
v 83.149117 -34.441605 100.000000
v 74.832207 -50.001415 100.000000
v 63.639523 -63.639690 100.000000
v 50.001217 -74.832329 100.000000
v 34.441383 -83.149208 100.000000
v 17.557993 -88.270699 100.000000
v -0.000001 -90.000000 -90.000000
v -17.558130 -88.270668 -90.000000
v -34.441509 -83.149155 -90.000000
v -50.001324 -74.832260 -90.000000
v -63.639614 -63.639606 -90.000000
v -74.832268 -50.001316 -90.000000
v -83.149155 -34.441509 -90.000000
v -88.270668 -17.558134 -90.000000
v -90.000000 -0.000009 -90.000000
v -88.270676 17.558115 -90.000000
v -83.149155 34.441490 -90.000000
v -74.832268 50.001312 -90.000000
v -63.639614 63.639610 -90.000000
v -50.001316 74.832260 -90.000000
v -34.441494 83.149162 -90.000000
v -17.558107 88.270668 -90.000000
v 0.000028 89.999992 -90.000000
v 17.558165 88.270660 -90.000000
v 34.441547 83.149132 -90.000000
v 50.001362 74.832230 -90.000000
v 63.639645 63.639568 -90.000000
v 74.832298 50.001263 -90.000000
v 83.149185 34.441437 -90.000000
v 88.270683 17.558048 -90.000000
v 90.000000 -0.000090 -90.000000
v 88.270653 -17.558224 -90.000000
v 83.149117 -34.441605 -90.000000
v 74.832207 -50.001415 -90.000000
v 63.639523 -63.639690 -90.000000
v 50.001217 -74.832329 -90.000000
v 34.441383 -83.149208 -90.000000
v 17.557993 -88.270699 -90.000000
v 0.000000 -100.000000 -100.000000
v -19.509033 -98.078522 -100.000000
v -19.509033 -98.078522 100.000000
v 0.000000 -100.000000 100.000000
v -38.268345 -92.387947 -100.000000
v -38.268345 -92.387947 100.000000
v -55.557026 -83.146957 -100.000000
v -55.557026 -83.146957 100.000000
v -70.710678 -70.710678 -100.000000
v -70.710678 -70.710678 100.000000
v -83.146965 -55.557018 -100.000000
v -83.146965 -55.557018 100.000000
v -92.387947 -38.268341 -100.000000
v -92.387947 -38.268341 100.000000
v -98.078522 -19.509035 -100.000000
v -98.078522 -19.509035 100.000000
v -100.000000 -0.000008 -100.000000
v -100.000000 -0.000008 100.000000
v -98.078529 19.509020 -100.000000
v -98.078529 19.509020 100.000000
v -92.387955 38.268326 -100.000000
v -92.387955 38.268326 100.000000
v -83.146965 55.557018 -100.000000
v -83.146965 55.557018 100.000000
v -70.710678 70.710678 -100.000000
v -70.710678 70.710678 100.000000
v -55.557018 83.146965 -100.000000
v -55.557018 83.146965 100.000000
v -38.268326 92.387962 -100.000000
v -38.268326 92.387962 100.000000
v -19.509008 98.078529 -100.000000
v -19.509008 98.078529 100.000000
v 0.000033 100.000000 -100.000000
v 0.000033 100.000000 100.000000
v 19.509073 98.078522 -100.000000
v 19.509073 98.078522 100.000000
v 38.268387 92.387932 -100.000000
v 38.268387 92.387932 100.000000
v 55.557072 83.146927 -100.000000
v 55.557072 83.146927 100.000000
v 70.710724 70.710632 -100.000000
v 70.710724 70.710632 100.000000
v 83.147003 55.556965 -100.000000
v 83.147003 55.556965 100.000000
v 92.387985 38.268269 -100.000000
v 92.387985 38.268269 100.000000
v 98.078545 19.508945 -100.000000
v 98.078545 19.508945 100.000000
v 100.000000 -0.000097 -100.000000
v 100.000000 -0.000097 100.000000
v 98.078506 -19.509134 -100.000000
v 98.078506 -19.509134 100.000000
v 92.387909 -38.268448 -100.000000
v 92.387909 -38.268448 100.000000
v 83.146896 -55.557125 -100.000000
v 83.146896 -55.557125 100.000000
v 70.710587 -70.710770 -100.000000
v 70.710587 -70.710770 100.000000
v 55.556911 -83.147034 -100.000000
v 55.556911 -83.147034 100.000000
v 38.268208 -92.388008 -100.000000
v 38.268208 -92.388008 100.000000
v 19.508883 -98.078552 -100.000000
v 19.508883 -98.078552 100.000000
v -17.558130 -88.270668 100.000000
v -0.000001 -90.000000 100.000000
v -34.441509 -83.149155 100.000000
v -50.001324 -74.832260 100.000000
v -63.639614 -63.639606 100.000000
v -74.832268 -50.001316 100.000000
v -83.149155 -34.441509 100.000000
v -88.270668 -17.558134 100.000000
v -90.000000 -0.000009 100.000000
v -88.270676 17.558115 100.000000
v -83.149155 34.441490 100.000000
v -74.832268 50.001312 100.000000
v -63.639614 63.639610 100.000000
v -50.001316 74.832260 100.000000
v -34.441494 83.149162 100.000000
v -17.558107 88.270668 100.000000
v 0.000028 89.999992 100.000000
v 17.558165 88.270660 100.000000
v 34.441547 83.149132 100.000000
v 50.001362 74.832230 100.000000
v 63.639645 63.639568 100.000000
v 74.832298 50.001263 100.000000
v 83.149185 34.441437 100.000000
v 88.270683 17.558048 100.000000
v 90.000000 -0.000090 100.000000
v 88.270653 -17.558224 100.000000
v 83.149117 -34.441605 100.000000
v 74.832207 -50.001415 100.000000
v 63.639523 -63.639690 100.000000
v 50.001217 -74.832329 100.000000
v 34.441383 -83.149208 100.000000
v 17.557993 -88.270699 100.000000
v -17.558130 -88.270668 -90.000000
v -0.000001 -90.000000 -90.000000
v -34.441509 -83.149155 -90.000000
v -50.001324 -74.832260 -90.000000
v -63.639614 -63.639606 -90.000000
v -74.832268 -50.001316 -90.000000
v -83.149155 -34.441509 -90.000000
v -88.270668 -17.558134 -90.000000
v -90.000000 -0.000009 -90.000000
v -88.270676 17.558115 -90.000000
v -83.149155 34.441490 -90.000000
v -74.832268 50.001312 -90.000000
v -63.639614 63.639610 -90.000000
v -50.001316 74.832260 -90.000000
v -34.441494 83.149162 -90.000000
v -17.558107 88.270668 -90.000000
v 0.000028 89.999992 -90.000000
v 17.558165 88.270660 -90.000000
v 34.441547 83.149132 -90.000000
v 50.001362 74.832230 -90.000000
v 63.639645 63.639568 -90.000000
v 74.832298 50.001263 -90.000000
v 83.149185 34.441437 -90.000000
v 88.270683 17.558048 -90.000000
v 90.000000 -0.000090 -90.000000
v 88.270653 -17.558224 -90.000000
v 83.149117 -34.441605 -90.000000
v 74.832207 -50.001415 -90.000000
v 63.639523 -63.639690 -90.000000
v 50.001217 -74.832329 -90.000000
v 34.441383 -83.149208 -90.000000
v 17.557993 -88.270699 -90.000000
vt 0.319112 0.718399
vt 0.000802 0.718400
vt 0.000802 0.749600
vt 0.319112 0.687199
vt 0.000802 0.687200
vt 0.319112 0.656000
vt 0.000802 0.656000
vt 0.319112 0.624800
vt 0.000802 0.624800
vt 0.319112 0.593600
vt 0.000802 0.593600
vt 0.319112 0.562400
vt 0.000802 0.562400
vt 0.319112 0.531200
vt 0.000801 0.531200
vt 0.319112 0.500001
vt 0.000801 0.500000
vt 0.319112 0.468801
vt 0.000801 0.468800
vt 0.319112 0.437601
vt 0.000802 0.437601
vt 0.319112 0.406401
vt 0.000802 0.406401
vt 0.319112 0.375201
vt 0.000802 0.375201
vt 0.319112 0.344001
vt 0.000802 0.344001
vt 0.319112 0.312801
vt 0.000802 0.312801
vt 0.319112 0.281601
vt 0.000802 0.281601
vt 0.319112 0.250401
vt 0.000802 0.250401
vt 0.319112 0.219202
vt 0.000802 0.219201
vt 0.319112 0.188002
vt 0.000802 0.188001
vt 0.319112 0.156802
vt 0.000802 0.156801
vt 0.319113 0.125602
vt 0.000802 0.125601
vt 0.319113 0.094402
vt 0.000802 0.094401
vt 0.319113 0.063202
vt 0.000802 0.063201
vt 0.319113 0.032002
vt 0.000802 0.032001
vt 0.319113 0.000803
vt 0.000802 0.000801
vt 0.319113 0.967998
vt 0.000802 0.967999
vt 0.000802 0.999199
vt 0.319113 0.936798
vt 0.000802 0.936799
vt 0.319113 0.905598
vt 0.000802 0.905599
vt 0.319112 0.874398
vt 0.000802 0.874399
vt 0.319112 0.843198
vt 0.000802 0.843199
vt 0.319112 0.811999
vt 0.000802 0.811999
vt 0.646031 0.435991
vt 0.656777 0.410048
vt 0.642740 0.402546
vt 0.319112 0.749599
vt 0.000802 0.780799
vt 0.319112 0.780799
vt 0.906132 0.058223
vt 0.682136 0.036162
vt 0.660074 0.260157
vt 0.320716 0.758960
vt 0.320716 0.787039
vt 0.623111 0.787039
vt 0.798703 0.635960
vt 0.797143 0.620121
vt 0.769063 0.620121
vt 0.893829 0.386701
vt 0.909429 0.410048
vt 0.923465 0.402545
vt 0.630801 0.523771
vt 0.646031 0.519151
vt 0.640553 0.491611
vt 0.824683 0.340499
vt 0.850625 0.351245
vt 0.858128 0.337208
vt 0.682136 0.600599
vt 0.692233 0.588297
vt 0.672377 0.568441
vt 0.873973 0.588296
vt 0.850626 0.603897
vt 0.858128 0.617933
vt 0.736903 0.325269
vt 0.741523 0.340499
vt 0.769063 0.335021
vt 0.920175 0.519151
vt 0.909429 0.545093
vt 0.923465 0.552596
vt 0.660074 0.376604
vt 0.672377 0.386701
vt 0.692233 0.366845
vt 0.741523 0.614643
vt 0.715580 0.603897
vt 0.708078 0.617933
vt 0.920175 0.435990
vt 0.925653 0.463531
vt 0.941492 0.461971
vt 0.624714 0.461971
vt 0.640553 0.463531
vt 0.873973 0.366845
vt 0.906131 0.376604
vt 0.829304 0.629873
vt 0.824683 0.614643
vt 0.642741 0.552596
vt 0.656777 0.545094
vt 0.797143 0.335021
vt 0.829303 0.325269
vt 0.893829 0.568441
vt 0.884070 0.600599
vt 0.708078 0.337209
vt 0.715580 0.351245
vt 0.925653 0.491611
vt 0.935405 0.523771
vt 0.767503 0.635960
vt 0.624714 0.493171
vt 0.798703 0.319182
vt 0.941492 0.493171
vt 0.877990 0.870983
vt 0.858135 0.669387
vt 0.656538 0.689242
vt 0.320716 0.169281
vt 0.320716 0.197361
vt 0.623111 0.197362
vt 0.320716 0.478160
vt 0.320716 0.506240
vt 0.623111 0.506240
vt 0.320716 0.815119
vt 0.320716 0.843199
vt 0.623111 0.843199
vt 0.320716 0.534320
vt 0.320716 0.562400
vt 0.623111 0.562400
vt 0.320716 0.225441
vt 0.320716 0.253521
vt 0.623111 0.253521
vt 0.320716 0.871279
vt 0.320716 0.899359
vt 0.623111 0.899359
vt 0.320716 0.590480
vt 0.320716 0.618560
vt 0.623111 0.618560
vt 0.320716 0.281601
vt 0.320716 0.309681
vt 0.623111 0.309681
vt 0.320716 0.028882
vt 0.320716 0.056962
vt 0.623111 0.056962
vt 0.320716 0.646640
vt 0.320716 0.674720
vt 0.623111 0.674720
vt 0.320716 0.337761
vt 0.320716 0.365841
vt 0.623111 0.365841
vt 0.320716 0.702800
vt 0.623111 0.702799
vt 0.320716 0.085041
vt 0.320716 0.113121
vt 0.623111 0.113122
vt 0.320716 0.393921
vt 0.320716 0.422001
vt 0.623111 0.422001
vt 0.320716 0.730880
vt 0.623111 0.758959
vt 0.320716 0.141201
vt 0.623111 0.169282
vt 0.320716 0.450080
vt 0.623111 0.478160
vt 0.623111 0.815119
vt 0.623111 0.225441
vt 0.623111 0.534320
vt 0.623111 0.871279
vt 0.623111 0.590480
vt 0.623111 0.281601
vt 0.320716 0.000801
vt 0.623111 0.028882
vt 0.623111 0.646640
vt 0.623111 0.337761
vt 0.623111 0.085042
vt 0.623111 0.393921
vt 0.623111 0.730879
vt 0.623111 0.141202
vt 0.623111 0.450081
vt 0.319113 0.999197
vt 0.630801 0.431371
vt 0.923465 0.234215
vt 0.923465 0.084165
vt 0.941492 0.143591
vt 0.935405 0.112990
vt 0.935405 0.205391
vt 0.941492 0.174790
vt 0.682136 0.282219
vt 0.829303 0.311492
vt 0.858128 0.299553
vt 0.884070 0.282219
vt 0.767503 0.317579
vt 0.798703 0.317579
vt 0.736902 0.311492
vt 0.708077 0.299553
vt 0.630801 0.205391
vt 0.642741 0.234216
vt 0.624714 0.143590
vt 0.624714 0.174790
vt 0.642741 0.084164
vt 0.630801 0.112989
vt 0.660075 0.058223
vt 0.736903 0.006888
vt 0.708078 0.018828
vt 0.798703 0.000802
vt 0.767503 0.000801
vt 0.884070 0.036162
vt 0.829304 0.006888
vt 0.858128 0.018828
vt 0.906131 0.260157
vt 0.660074 0.578538
vt 0.767503 0.319182
vt 0.682136 0.354542
vt 0.736903 0.629873
vt 0.935405 0.431370
vt 0.884070 0.354542
vt 0.906132 0.578538
vt 0.834787 0.906438
vt 0.858135 0.890838
vt 0.781304 0.922662
vt 0.808845 0.917184
vt 0.676394 0.890838
vt 0.753224 0.922662
vt 0.699741 0.906439
vt 0.725684 0.917184
vt 0.640938 0.847635
vt 0.656538 0.870983
vt 0.624714 0.794152
vt 0.630192 0.821693
vt 0.630192 0.738532
vt 0.624714 0.766073
vt 0.640938 0.712590
vt 0.699741 0.653786
vt 0.676394 0.669387
vt 0.753224 0.637563
vt 0.725684 0.643041
vt 0.808845 0.643041
vt 0.781304 0.637563
vt 0.834787 0.653786
vt 0.893590 0.712590
vt 0.877990 0.689242
vt 0.909814 0.766072
vt 0.904336 0.738532
vt 0.904336 0.821693
vt 0.909814 0.794152
vt 0.893590 0.847635
vt 0.623111 0.000802
vn 0.195100 0.980800 0.000000
vn 0.000000 1.000000 0.000000
vn 0.382700 0.923900 0.000000
vn 0.555600 0.831500 0.000000
vn 0.707100 0.707100 0.000000
vn 0.831500 0.555600 0.000000
vn 0.923900 0.382700 0.000000
vn 0.980800 0.195100 0.000000
vn 1.000000 -0.000000 0.000000
vn 0.980800 -0.195100 0.000000
vn 0.923900 -0.382700 0.000000
vn 0.831500 -0.555600 0.000000
vn 0.707100 -0.707100 0.000000
vn 0.555600 -0.831500 0.000000
vn 0.382700 -0.923900 0.000000
vn 0.195100 -0.980800 0.000000
vn -0.000000 -1.000000 0.000000
vn -0.195100 -0.980800 0.000000
vn -0.382700 -0.923900 0.000000
vn -0.555600 -0.831500 0.000000
vn -0.707100 -0.707100 0.000000
vn -0.831500 -0.555600 0.000000
vn -0.923900 -0.382700 0.000000
vn -0.980800 -0.195100 0.000000
vn -1.000000 0.000000 0.000000
vn -0.980800 0.195100 0.000000
vn -0.923900 0.382700 0.000000
vn -0.831500 0.555600 0.000000
vn -0.707100 0.707100 0.000000
vn -0.555600 0.831500 0.000000
vn -0.382700 0.923900 0.000000
vn -0.000000 0.000000 -1.000000
vn -0.195100 0.980800 0.000000
vn 0.000000 0.000000 1.000000
g Cylinder.007_Cylinder.007_None
usemtl None
s 1
f 3/1/1 4/2/1 2/3/2
f 5/4/3 6/5/3 4/2/1
f 7/6/4 8/7/4 6/5/3
f 9/8/5 10/9/5 8/7/4
f 11/10/6 12/11/6 10/9/5
f 13/12/7 14/13/7 12/11/6
f 15/14/8 16/15/8 14/13/7
f 17/16/9 18/17/9 16/15/8
f 19/18/10 20/19/10 18/17/9
f 21/20/11 22/21/11 20/19/10
f 23/22/12 24/23/12 22/21/11
f 25/24/13 26/25/13 24/23/12
f 27/26/14 28/27/14 26/25/13
f 29/28/15 30/29/15 28/27/14
f 31/30/16 32/31/16 30/29/15
f 33/32/17 34/33/17 32/31/16
f 35/34/18 36/35/18 34/33/17
f 37/36/19 38/37/19 36/35/18
f 39/38/20 40/39/20 38/37/19
f 41/40/21 42/41/21 40/39/20
f 43/42/22 44/43/22 42/41/21
f 45/44/23 46/45/23 44/43/22
f 47/46/24 48/47/24 46/45/23
f 49/48/25 50/49/25 48/47/24
f 51/50/26 52/51/26 50/52/25
f 53/53/27 54/54/27 52/51/26
f 55/55/28 56/56/28 54/54/27
f 57/57/29 58/58/29 56/56/28
f 59/59/30 60/60/30 58/58/29
f 61/61/31 62/62/31 60/60/30
f 92/63/32 91/64/32 182/65/32
f 1/66/2 2/3/2 64/67/33
f 63/68/33 64/67/33 62/62/31
f 129/69/34 177/70/34 161/71/34
f 126/72/14 253/73/13 221/74/13
f 140/75/32 70/76/32 69/77/32
f 81/78/32 80/79/32 160/80/32
f 190/81/32 95/82/32 222/83/32
f 84/84/32 83/85/32 166/86/32
f 131/87/32 66/88/32 65/89/32
f 73/90/32 72/91/32 144/92/32
f 174/93/32 87/94/32 86/95/32
f 76/96/32 75/97/32 150/98/32
f 180/99/32 90/100/32 89/101/32
f 68/102/32 67/103/32 134/104/32
f 79/105/32 78/106/32 156/107/32
f 186/108/32 93/109/32 92/63/32
f 82/110/32 81/78/32 162/111/32
f 142/112/32 71/113/32 70/76/32
f 192/114/32 96/115/32 95/82/32
f 85/116/32 84/84/32 168/117/32
f 74/118/32 73/90/32 146/119/32
f 176/120/32 88/121/32 87/94/32
f 77/122/32 76/96/32 152/123/32
f 182/65/32 91/64/32 90/100/32
f 138/124/32 69/77/32 68/102/32
f 160/80/32 80/79/32 79/105/32
f 188/125/32 222/83/32 93/109/32
f 166/86/32 83/85/32 82/110/32
f 72/91/32 71/113/32 142/112/32
f 65/89/32 96/115/32 192/114/32
f 86/95/32 85/116/32 170/126/32
f 150/98/32 75/97/32 74/118/32
f 89/101/32 88/121/32 176/120/32
f 67/103/32 66/88/32 131/87/32
f 78/106/32 77/122/32 154/127/32
f 98/128/32 106/129/32 114/130/32
f 243/131/3 242/132/1 210/133/1
f 232/134/24 231/135/23 199/136/23
f 252/137/12 251/138/11 219/139/11
f 230/140/22 229/141/21 197/142/21
f 241/143/2 240/144/33 208/145/33
f 250/146/10 249/147/9 217/148/9
f 228/149/20 227/150/19 195/151/19
f 239/152/31 238/153/30 206/154/30
f 248/155/8 247/156/7 215/157/7
f 225/158/18 226/159/17 194/160/17
f 237/161/29 236/162/28 204/163/28
f 226/159/17 256/164/16 224/165/16
f 246/166/6 245/167/5 213/168/5
f 235/169/27 234/170/26 202/171/26
f 255/172/15 126/72/14 94/173/14
f 244/174/4 243/131/3 211/175/3
f 233/176/25 232/134/24 200/177/24
f 253/73/13 252/137/12 220/178/12
f 242/132/1 241/143/2 209/179/2
f 231/135/23 230/140/22 198/180/22
f 251/138/11 250/146/10 218/181/10
f 229/141/21 228/149/20 196/182/20
f 240/144/33 239/152/31 207/183/31
f 249/184/9 248/155/8 216/185/8
f 227/150/19 225/158/18 193/186/18
f 238/153/30 237/161/29 205/187/29
f 247/156/7 246/166/6 214/188/6
f 236/162/28 235/169/27 203/189/27
f 256/164/16 255/172/15 223/190/15
f 245/167/5 244/174/4 212/191/4
f 234/170/26 233/176/25 201/192/25
f 1/66/2 3/1/1 2/3/2
f 3/1/1 5/4/3 4/2/1
f 5/4/3 7/6/4 6/5/3
f 7/6/4 9/8/5 8/7/4
f 9/8/5 11/10/6 10/9/5
f 11/10/6 13/12/7 12/11/6
f 13/12/7 15/14/8 14/13/7
f 15/14/8 17/16/9 16/15/8
f 17/16/9 19/18/10 18/17/9
f 19/18/10 21/20/11 20/19/10
f 21/20/11 23/22/12 22/21/11
f 23/22/12 25/24/13 24/23/12
f 25/24/13 27/26/14 26/25/13
f 27/26/14 29/28/15 28/27/14
f 29/28/15 31/30/16 30/29/15
f 31/30/16 33/32/17 32/31/16
f 33/32/17 35/34/18 34/33/17
f 35/34/18 37/36/19 36/35/18
f 37/36/19 39/38/20 38/37/19
f 39/38/20 41/40/21 40/39/20
f 41/40/21 43/42/22 42/41/21
f 43/42/22 45/44/23 44/43/22
f 45/44/23 47/46/24 46/45/23
f 47/46/24 49/48/25 48/47/24
f 49/193/25 51/50/26 50/52/25
f 51/50/26 53/53/27 52/51/26
f 53/53/27 55/55/28 54/54/27
f 55/55/28 57/57/29 56/56/28
f 57/57/29 59/59/30 58/58/29
f 59/59/30 61/61/31 60/60/30
f 184/194/32 92/63/32 182/65/32
f 63/68/33 1/66/2 64/67/33
f 61/61/31 63/68/33 62/62/31
f 141/195/34 130/196/34 129/69/34
f 141/195/34 135/197/34 133/198/34
f 141/195/34 139/199/34 137/200/34
f 161/71/34 159/201/34 141/195/34
f 149/202/34 147/203/34 145/204/34
f 153/205/34 151/206/34 149/202/34
f 149/202/34 155/207/34 153/205/34
f 155/207/34 159/201/34 157/208/34
f 165/209/34 163/210/34 161/71/34
f 169/211/34 167/212/34 165/209/34
f 173/213/34 171/214/34 169/211/34
f 169/211/34 175/215/34 173/213/34
f 181/216/34 179/217/34 177/70/34
f 185/218/34 183/219/34 181/216/34
f 191/220/34 187/221/34 185/218/34
f 187/221/34 191/220/34 189/222/34
f 141/195/34 133/198/34 130/196/34
f 135/197/34 141/195/34 137/200/34
f 143/223/34 149/202/34 145/204/34
f 149/202/34 159/201/34 155/207/34
f 177/70/34 165/209/34 161/71/34
f 177/70/34 175/215/34 169/211/34
f 185/218/34 181/216/34 177/70/34
f 177/70/34 191/220/34 185/218/34
f 161/71/34 141/195/34 129/69/34
f 143/223/34 141/195/34 159/201/34
f 177/70/34 169/211/34 165/209/34
f 129/69/34 191/220/34 177/70/34
f 143/223/34 159/201/34 149/202/34
f 94/173/14 126/72/14 221/74/13
f 138/124/32 140/75/32 69/77/32
f 162/111/32 81/78/32 160/80/32
f 188/125/32 190/81/32 222/83/32
f 168/117/32 84/84/32 166/86/32
f 132/224/32 131/87/32 65/89/32
f 146/119/32 73/90/32 144/92/32
f 172/225/32 174/93/32 86/95/32
f 152/123/32 76/96/32 150/98/32
f 178/226/32 180/99/32 89/101/32
f 136/227/32 68/102/32 134/104/32
f 158/228/32 79/105/32 156/107/32
f 184/194/32 186/108/32 92/63/32
f 164/229/32 82/110/32 162/111/32
f 140/75/32 142/112/32 70/76/32
f 190/81/32 192/114/32 95/82/32
f 170/126/32 85/116/32 168/117/32
f 148/230/32 74/118/32 146/119/32
f 174/93/32 176/120/32 87/94/32
f 154/127/32 77/122/32 152/123/32
f 180/99/32 182/65/32 90/100/32
f 136/227/32 138/124/32 68/102/32
f 158/228/32 160/80/32 79/105/32
f 186/108/32 188/125/32 93/109/32
f 164/229/32 166/86/32 82/110/32
f 144/92/32 72/91/32 142/112/32
f 132/224/32 65/89/32 192/114/32
f 172/225/32 86/95/32 170/126/32
f 148/230/32 150/98/32 74/118/32
f 178/226/32 89/101/32 176/120/32
f 134/104/32 67/103/32 131/87/32
f 156/107/32 78/106/32 154/127/32
f 128/231/32 97/232/32 98/128/32
f 254/233/32 127/234/32 128/231/32
f 122/235/32 125/236/32 254/233/32
f 125/236/32 123/237/32 124/238/32
f 120/239/32 121/240/32 122/235/32
f 118/241/32 119/242/32 120/239/32
f 116/243/32 117/244/32 118/241/32
f 120/239/32 115/245/32 116/243/32
f 112/246/32 113/247/32 114/130/32
f 110/248/32 111/249/32 112/246/32
f 108/250/32 109/251/32 110/248/32
f 110/248/32 107/252/32 108/250/32
f 104/253/32 105/254/32 106/129/32
f 102/255/32 103/256/32 104/253/32
f 100/257/32 101/258/32 102/255/32
f 98/128/32 99/259/32 100/257/32
f 254/233/32 128/231/32 98/128/32
f 122/235/32 123/237/32 125/236/32
f 98/128/32 120/239/32 122/235/32
f 120/239/32 116/243/32 118/241/32
f 110/248/32 112/246/32 114/130/32
f 114/130/32 107/252/32 110/248/32
f 98/128/32 104/253/32 106/129/32
f 98/128/32 100/257/32 102/255/32
f 122/235/32 254/233/32 98/128/32
f 98/128/32 115/245/32 120/239/32
f 106/129/32 107/252/32 114/130/32
f 98/128/32 102/255/32 104/253/32
f 114/130/32 115/245/32 98/128/32
f 211/175/3 243/131/3 210/133/1
f 200/177/24 232/134/24 199/136/23
f 220/178/12 252/137/12 219/139/11
f 198/180/22 230/140/22 197/142/21
f 209/179/2 241/143/2 208/145/33
f 218/181/10 250/146/10 217/148/9
f 196/182/20 228/149/20 195/151/19
f 207/183/31 239/152/31 206/154/30
f 216/185/8 248/155/8 215/157/7
f 193/186/18 225/158/18 194/160/17
f 205/187/29 237/161/29 204/163/28
f 194/160/17 226/159/17 224/165/16
f 214/188/6 246/166/6 213/168/5
f 203/189/27 235/169/27 202/171/26
f 223/190/15 255/172/15 94/173/14
f 212/191/4 244/174/4 211/175/3
f 201/192/25 233/176/25 200/177/24
f 221/74/13 253/73/13 220/178/12
f 210/133/1 242/132/1 209/179/2
f 199/136/23 231/135/23 198/180/22
f 219/139/11 251/138/11 218/181/10
f 197/142/21 229/141/21 196/182/20
f 208/145/33 240/144/33 207/183/31
f 217/260/9 249/184/9 216/185/8
f 195/151/19 227/150/19 193/186/18
f 206/154/30 238/153/30 205/187/29
f 215/157/7 247/156/7 214/188/6
f 204/163/28 236/162/28 203/189/27
f 224/165/16 256/164/16 223/190/15
f 213/168/5 245/167/5 212/191/4
f 202/171/26 234/170/26 201/192/25
