# Blender v2.73 (sub 0) OBJ File: 'CubeHollow.blend'
# www.blender.org
mtllib CubeHollow2SidesShape.mtl
o Cube.000_Cube.002
v 100.000000 100.000000 100.000000
v 100.000000 -100.000000 100.000000
v 100.000000 -100.000000 -100.000000
v 100.000000 100.000000 -100.000000
v -100.000000 100.000000 100.000000
v -100.000000 100.000000 -100.000000
v 90.000000 90.000000 100.000000
v 90.000000 -90.000000 100.000000
v -90.000000 -90.000000 100.000000
v -100.000000 -100.000000 100.000000
v -90.000000 90.000000 100.000000
v -100.000000 -100.000000 -100.000000
v 90.000000 90.000000 -100.000000
v -90.000000 90.000000 -100.000000
v -90.000000 -90.000000 -100.000000
v 90.000000 -90.000000 -100.000000
v 100.000000 -100.000000 100.000000
v 100.000000 -100.000000 100.000000
v 100.000000 -100.000000 -100.000000
v 100.000000 -100.000000 -100.000000
v 100.000000 100.000000 -100.000000
v 100.000000 100.000000 -100.000000
v 100.000000 100.000000 100.000000
v 100.000000 100.000000 100.000000
v -100.000000 100.000000 -100.000000
v -100.000000 100.000000 -100.000000
v -100.000000 100.000000 100.000000
v -100.000000 100.000000 100.000000
v 90.000000 90.000000 100.000000
v 90.000000 90.000000 100.000000
v 90.000000 -90.000000 100.000000
v 90.000000 -90.000000 100.000000
v -90.000000 -90.000000 100.000000
v -90.000000 -90.000000 100.000000
v -100.000000 -100.000000 100.000000
v -100.000000 -100.000000 100.000000
v -90.000000 90.000000 100.000000
v -90.000000 90.000000 100.000000
v 90.000000 90.000000 -100.000000
v 90.000000 90.000000 -100.000000
v -90.000000 90.000000 -100.000000
v -90.000000 90.000000 -100.000000
v -90.000000 -90.000000 -100.000000
v -90.000000 -90.000000 -100.000000
v -100.000000 -100.000000 -100.000000
v -100.000000 -100.000000 -100.000000
v 90.000000 -90.000000 -100.000000
v 90.000000 -90.000000 -100.000000
vn 1.000000 0.000000 0.000000
vn 0.000000 1.000000 0.000000
vn 0.000000 0.000000 1.000000
vn 0.000000 -1.000000 0.000000
vn -1.000000 0.000000 0.000000
vn 0.000000 0.000000 -1.000000
g Cube.000_Cube.002_None
usemtl None
s 1
f 2//1 3//1 4//1
f 23//2 22//2 6//2
f 8//3 18//3 24//3
f 27//3 11//3 7//3
f 10//4 46//4 20//4
f 35//3 9//3 11//3
f 9//3 35//3 18//3
f 28//5 26//5 45//5
f 29//5 40//5 48//5
f 32//2 47//2 44//2
f 37//4 41//4 39//4
f 34//1 43//1 42//1
f 21//6 19//6 16//6
f 16//6 19//6 12//6
f 12//6 25//6 14//6
f 14//6 25//6 21//6
f 1//1 2//1 4//1
f 5//2 23//2 6//2
f 7//3 8//3 24//3
f 24//3 27//3 7//3
f 17//4 10//4 20//4
f 27//3 35//3 11//3
f 8//3 9//3 18//3
f 36//5 28//5 45//5
f 31//5 29//5 48//5
f 33//2 32//2 44//2
f 30//4 37//4 39//4
f 38//1 34//1 42//1
f 13//6 21//6 16//6
f 15//6 16//6 12//6
f 15//6 12//6 14//6
f 13//6 14//6 21//6
