# Blender v2.73 (sub 0) OBJ File: 'CubeHollow.blend'
# www.blender.org
mtllib CubeHollowOpenShape.mtl
o Cube_Cube.006
v -100.000000 -100.000000 100.000000
v -100.000000 -100.000000 -100.000000
v 100.000000 -100.000000 -100.000000
v 100.000000 -100.000000 100.000000
v -100.000000 100.000000 100.000000
v -100.000000 100.000000 -100.000000
v 100.000000 100.000000 -100.000000
v 100.000000 100.000000 100.000000
v -90.000000 100.000000 90.000000
v -90.000000 100.000000 -90.000000
v 90.000000 100.000000 -90.000000
v 90.000000 100.000000 90.000000
v -90.000000 -90.000000 90.000000
v -90.000000 -90.000000 -90.000000
v 90.000000 -90.000000 -90.000000
v 90.000000 -90.000000 90.000000
v -100.000000 -100.000000 100.000000
v -100.000000 -100.000000 100.000000
v -100.000000 100.000000 100.000000
v -100.000000 100.000000 100.000000
v -100.000000 100.000000 -100.000000
v -100.000000 100.000000 -100.000000
v -100.000000 -100.000000 -100.000000
v -100.000000 -100.000000 -100.000000
v 100.000000 100.000000 -100.000000
v 100.000000 100.000000 -100.000000
v 100.000000 -100.000000 -100.000000
v 100.000000 -100.000000 -100.000000
v 100.000000 100.000000 100.000000
v 100.000000 100.000000 100.000000
v 100.000000 -100.000000 100.000000
v 100.000000 -100.000000 100.000000
v -90.000000 100.000000 90.000000
v -90.000000 100.000000 90.000000
v -90.000000 100.000000 -90.000000
v -90.000000 100.000000 -90.000000
v 90.000000 100.000000 -90.000000
v 90.000000 100.000000 -90.000000
v 90.000000 100.000000 90.000000
v 90.000000 100.000000 90.000000
v -90.000000 -90.000000 90.000000
v -90.000000 -90.000000 90.000000
v -90.000000 -90.000000 -90.000000
v -90.000000 -90.000000 -90.000000
v 90.000000 -90.000000 -90.000000
v 90.000000 -90.000000 -90.000000
v 90.000000 -90.000000 90.000000
v 90.000000 -90.000000 90.000000
vn -1.000000 0.000000 0.000000
vn 0.000000 0.000000 -1.000000
vn 1.000000 0.000000 0.000000
vn 0.000000 0.000000 1.000000
vn 0.000000 -1.000000 0.000000
vn 0.000000 1.000000 0.000000
g Cube_Cube.006_None
usemtl None
s off
f 6//1 2//1 1//1
f 7//2 3//2 23//2
f 8//3 4//3 27//3
f 19//4 17//4 31//4
f 24//5 28//5 32//5
f 30//6 12//6 9//6
f 39//2 47//2 41//2
f 26//6 11//6 12//6
f 22//6 10//6 11//6
f 20//6 9//6 10//6
f 15//6 14//6 13//6
f 37//1 45//1 48//1
f 35//4 43//4 46//4
f 34//3 42//3 44//3
f 5//1 6//1 1//1
f 21//2 7//2 23//2
f 25//3 8//3 27//3
f 29//4 19//4 31//4
f 18//5 24//5 32//5
f 20//6 30//6 9//6
f 33//2 39//2 41//2
f 30//6 26//6 12//6
f 26//6 22//6 11//6
f 22//6 20//6 10//6
f 16//6 15//6 13//6
f 40//1 37//1 48//1
f 38//4 35//4 46//4
f 36//3 34//3 44//3
