# Blender v2.73 (sub 0) OBJ File: 'PlaneShapes.blend'
# www.blender.org
mtllib DecagonPlaneShape.mtl
o Cylinder.006_Cylinder.008
v 0.000000 -100.000000 0.000000
v -58.778526 -80.901703 0.000000
v -95.105652 -30.901697 0.000000
v -95.105652 30.901703 0.000000
v -58.778519 80.901703 0.000000
v 0.000009 100.000000 0.000000
v 58.778538 80.901695 0.000000
v 95.105652 30.901709 0.000000
v 95.105652 -30.901712 0.000000
v 58.778496 -80.901726 0.000000
vn 0.000000 0.000000 1.000000
g Cylinder.006_Cylinder.008_None
usemtl None
s off
f 1//1 9//1 5//1
f 3//1 2//1 1//1
f 1//1 4//1 3//1
f 9//1 6//1 5//1
f 9//1 8//1 7//1
f 1//1 10//1 9//1
f 5//1 4//1 1//1
f 9//1 7//1 6//1
