# Blender v2.73 (sub 0) OBJ File: 'PlaneShapes.blend'
# www.blender.org
mtllib DecagonPlane.mtl
o Cylinder.014_Cylinder.018
v 0.000000 -100.000000 0.000000
v -58.778526 -80.901703 0.000000
v -95.105652 -30.901697 0.000000
v -95.105652 30.901703 0.000000
v -58.778519 80.901703 0.000000
v 0.000009 100.000000 0.000000
v 58.778538 80.901695 0.000000
v 95.105652 30.901709 0.000000
v 95.105652 -30.901712 0.000000
v 58.778496 -80.901726 0.000000
vt 0.475547 0.000390
vt 0.950705 0.345612
vt 0.181884 0.904193
vt 0.000390 0.345612
vt 0.181884 0.095807
vt 0.000390 0.654388
vt 0.475547 0.999610
vt 0.950705 0.654388
vt 0.769211 0.904193
vt 0.769211 0.095807
vn 0.000000 0.000000 1.000000
g Cylinder.014_Cylinder.018_None
usemtl None
s off
f 1/1/1 9/2/1 5/3/1
f 3/4/1 2/5/1 1/1/1
f 1/1/1 4/6/1 3/4/1
f 9/2/1 6/7/1 5/3/1
f 9/2/1 8/8/1 7/9/1
f 1/1/1 10/10/1 9/2/1
f 5/3/1 4/6/1 1/1/1
f 9/2/1 7/9/1 6/7/1
