# Blender v2.73 (sub 0) OBJ File: 'PlaneShapes.blend'
# www.blender.org
mtllib HexagonPlane.mtl
o Cylinder.012_Cylinder.016
v 0.000000 -100.000000 0.000000
v -86.602547 -49.999996 0.000000
v -86.602539 50.000008 0.000000
v 0.000009 100.000000 0.000000
v 86.602547 49.999992 0.000000
v 86.602547 -49.999992 0.000000
vt 0.000372 0.250186
vt 0.865753 0.749814
vt 0.000372 0.749814
vt 0.433063 0.000372
vt 0.433063 0.999628
vt 0.865753 0.250186
vn 0.000000 0.000000 1.000000
g Cylinder.012_Cylinder.016_None
usemtl None
s off
f 2/1/1 5/2/1 3/3/1
f 5/2/1 2/1/1 1/4/1
f 5/2/1 4/5/1 3/3/1
f 1/4/1 6/6/1 5/2/1
