# Blender v2.73 (sub 0) OBJ File: 'PlaneShapes.blend'
# www.blender.org
mtllib OctagonPlane.mtl
o Cylinder.013_Cylinder.017
v 0.000000 -100.000000 0.000000
v -70.710678 -70.710678 0.000000
v -100.000000 0.000004 0.000000
v -70.710678 70.710678 0.000000
v 0.000009 100.000000 0.000000
v 70.710686 70.710663 0.000000
v 100.000000 -0.000001 0.000000
v 70.710686 -70.710670 0.000000
vt 0.000400 0.293059
vt 0.706941 0.000400
vt 0.999600 0.293059
vt 0.293059 0.999600
vt 0.000400 0.706941
vt 0.999600 0.706941
vt 0.706941 0.999600
vt 0.293059 0.000400
vn 0.000000 0.000000 1.000000
g Cylinder.013_Cylinder.017_None
usemtl None
s off
f 1/1/1 7/2/1 6/3/1
f 3/4/1 2/5/1 1/1/1
f 5/6/1 4/7/1 3/4/1
f 3/4/1 6/3/1 5/6/1
f 1/1/1 8/8/1 7/2/1
f 6/3/1 3/4/1 1/1/1
