# Blender v2.73 (sub 0) OBJ File: 'PlaneShapes.blend'
# www.blender.org
mtllib PentagonPlane.mtl
o Cylinder.011_Cylinder.015
v 0.000000 -100.000000 0.000000
v -95.105652 -30.901697 0.000000
v -58.778519 80.901703 0.000000
v 58.778538 80.901695 0.000000
v 95.105652 -30.901712 0.000000
vt 0.363378 0.000390
vt 0.950705 0.191224
vt 0.363378 0.999610
vt 0.000390 0.500000
vt 0.950705 0.808776
vn 0.000000 0.000000 1.000000
g Cylinder.011_Cylinder.015_None
usemtl None
s off
f 1/1/1 5/2/1 3/3/1
f 3/3/1 2/4/1 1/1/1
f 5/2/1 4/5/1 3/3/1
