# Blender v2.73 (sub 0) OBJ File: 'Cylinder.blend'
# www.blender.org
mtllib CylinderInverted.mtl
o Cylinder.003_Cylinder.004
v 0.000000 -100.000000 -100.000000
v 0.000000 100.000000 -100.000000
v 19.509033 -100.000000 -98.078522
v 19.509033 100.000000 -98.078522
v 38.268345 -100.000000 -92.387947
v 38.268345 100.000000 -92.387947
v 55.557026 -100.000000 -83.146957
v 55.557026 100.000000 -83.146957
v 70.710678 -100.000000 -70.710678
v 70.710678 100.000000 -70.710678
v 83.146965 -100.000000 -55.557018
v 83.146965 100.000000 -55.557018
v 92.387947 -100.000000 -38.268341
v 92.387947 100.000000 -38.268341
v 98.078522 -100.000000 -19.509035
v 98.078522 100.000000 -19.509035
v 100.000000 -100.000000 -0.000008
v 100.000000 100.000000 -0.000008
v 98.078529 -100.000000 19.509020
v 98.078529 100.000000 19.509020
v 92.387955 -100.000000 38.268326
v 92.387955 100.000000 38.268326
v 83.146965 -100.000000 55.557018
v 83.146965 100.000000 55.557018
v 70.710678 -100.000000 70.710678
v 70.710678 100.000000 70.710678
v 55.557018 -100.000000 83.146965
v 55.557018 100.000000 83.146965
v 38.268326 -100.000000 92.387962
v 38.268326 100.000000 92.387962
v 19.509008 -100.000000 98.078529
v 19.509008 100.000000 98.078529
v -0.000033 -100.000000 100.000000
v -0.000033 100.000000 100.000000
v -19.509073 -100.000000 98.078522
v -19.509073 100.000000 98.078522
v -38.268387 -100.000000 92.387932
v -38.268387 100.000000 92.387932
v -55.557072 -100.000000 83.146927
v -55.557072 100.000000 83.146927
v -70.710724 -100.000000 70.710632
v -70.710724 100.000000 70.710632
v -83.147003 -100.000000 55.556965
v -83.147003 100.000000 55.556965
v -92.387985 -100.000000 38.268269
v -92.387985 100.000000 38.268269
v -98.078545 -100.000000 19.508945
v -98.078545 100.000000 19.508945
v -100.000000 -100.000000 -0.000097
v -100.000000 100.000000 -0.000097
v -98.078506 -100.000000 -19.509134
v -98.078506 100.000000 -19.509134
v -92.387909 -100.000000 -38.268448
v -92.387909 100.000000 -38.268448
v -83.146896 -100.000000 -55.557125
v -83.146896 100.000000 -55.557125
v -70.710587 -100.000000 -70.710770
v -70.710587 100.000000 -70.710770
v -55.556911 -100.000000 -83.147034
v -55.556911 100.000000 -83.147034
v -38.268208 -100.000000 -92.388008
v -38.268208 100.000000 -92.388008
v -19.508883 -100.000000 -98.078552
v -19.508883 100.000000 -98.078552
v 0.000000 -100.000000 -100.000000
v 19.509033 -100.000000 -98.078522
v 19.509033 100.000000 -98.078522
v 0.000000 100.000000 -100.000000
v 38.268345 -100.000000 -92.387947
v 38.268345 100.000000 -92.387947
v 55.557026 -100.000000 -83.146957
v 55.557026 100.000000 -83.146957
v 70.710678 -100.000000 -70.710678
v 70.710678 100.000000 -70.710678
v 83.146965 -100.000000 -55.557018
v 83.146965 100.000000 -55.557018
v 92.387947 -100.000000 -38.268341
v 92.387947 100.000000 -38.268341
v 98.078522 -100.000000 -19.509035
v 98.078522 100.000000 -19.509035
v 100.000000 -100.000000 -0.000008
v 100.000000 100.000000 -0.000008
v 98.078529 -100.000000 19.509020
v 98.078529 100.000000 19.509020
v 92.387955 -100.000000 38.268326
v 92.387955 100.000000 38.268326
v 83.146965 -100.000000 55.557018
v 83.146965 100.000000 55.557018
v 70.710678 -100.000000 70.710678
v 70.710678 100.000000 70.710678
v 55.557018 -100.000000 83.146965
v 55.557018 100.000000 83.146965
v 38.268326 -100.000000 92.387962
v 38.268326 100.000000 92.387962
v 19.509008 -100.000000 98.078529
v 19.509008 100.000000 98.078529
v -0.000033 -100.000000 100.000000
v -0.000033 100.000000 100.000000
v -19.509073 -100.000000 98.078522
v -19.509073 100.000000 98.078522
v -38.268387 -100.000000 92.387932
v -38.268387 100.000000 92.387932
v -55.557072 -100.000000 83.146927
v -55.557072 100.000000 83.146927
v -70.710724 -100.000000 70.710632
v -70.710724 100.000000 70.710632
v -83.147003 -100.000000 55.556965
v -83.147003 100.000000 55.556965
v -92.387985 -100.000000 38.268269
v -92.387985 100.000000 38.268269
v -98.078545 -100.000000 19.508945
v -98.078545 100.000000 19.508945
v -100.000000 -100.000000 -0.000097
v -100.000000 100.000000 -0.000097
v -98.078506 -100.000000 -19.509134
v -98.078506 100.000000 -19.509134
v -92.387909 -100.000000 -38.268448
v -92.387909 100.000000 -38.268448
v -83.146896 -100.000000 -55.557125
v -83.146896 100.000000 -55.557125
v -70.710587 -100.000000 -70.710770
v -70.710587 100.000000 -70.710770
v -55.556911 -100.000000 -83.147034
v -55.556911 100.000000 -83.147034
v -38.268208 -100.000000 -92.388008
v -38.268208 100.000000 -92.388008
v -19.508883 -100.000000 -98.078552
v -19.508883 100.000000 -98.078552
vt 0.319169 0.219289
vt 0.000958 0.219289
vt 0.000958 0.250479
vt 0.319169 0.188099
vt 0.000958 0.188098
vt 0.319169 0.156909
vt 0.000958 0.156908
vt 0.319169 0.125719
vt 0.000958 0.125718
vt 0.319169 0.094529
vt 0.000958 0.094528
vt 0.319169 0.063339
vt 0.000958 0.063338
vt 0.319170 0.032149
vt 0.000958 0.032148
vt 0.319170 0.000959
vt 0.000958 0.000958
vt 0.319170 0.967852
vt 0.000959 0.967852
vt 0.000959 0.999042
vt 0.319169 0.936661
vt 0.000958 0.936662
vt 0.319169 0.905471
vt 0.000958 0.905472
vt 0.319169 0.874281
vt 0.000958 0.874282
vt 0.319169 0.843091
vt 0.000958 0.843092
vt 0.319169 0.811901
vt 0.000958 0.811902
vt 0.319169 0.780711
vt 0.000958 0.780711
vt 0.319169 0.749521
vt 0.000958 0.749521
vt 0.319169 0.718331
vt 0.000958 0.718331
vt 0.319169 0.687140
vt 0.000958 0.687141
vt 0.319169 0.655950
vt 0.000958 0.655951
vt 0.319169 0.624760
vt 0.000958 0.624761
vt 0.319169 0.593570
vt 0.000958 0.593570
vt 0.319169 0.562380
vt 0.000958 0.562380
vt 0.319169 0.531190
vt 0.000958 0.531190
vt 0.319169 0.500000
vt 0.000958 0.500000
vt 0.319169 0.468810
vt 0.000958 0.468810
vt 0.319169 0.437620
vt 0.000958 0.437620
vt 0.319169 0.406430
vt 0.000958 0.406429
vt 0.319169 0.375240
vt 0.000958 0.375239
vt 0.319169 0.344050
vt 0.000958 0.344049
vt 0.319169 0.312859
vt 0.000958 0.312859
vt 0.321085 0.174892
vt 0.495019 0.317636
vt 0.637763 0.143702
vt 0.319169 0.250480
vt 0.000958 0.281669
vt 0.319169 0.281669
vt 0.339105 0.552892
vt 0.554426 0.618209
vt 0.619742 0.402889
vt 0.319170 0.999042
vt 0.327169 0.113111
vt 0.321085 0.143702
vt 0.356434 0.058362
vt 0.339105 0.084295
vt 0.463829 0.000958
vt 0.378488 0.036307
vt 0.433238 0.007043
vt 0.404422 0.018979
vt 0.525610 0.007042
vt 0.495019 0.000958
vt 0.580359 0.036307
vt 0.554426 0.018978
vt 0.602414 0.058361
vt 0.631679 0.113111
vt 0.619743 0.084295
vt 0.631678 0.205483
vt 0.637763 0.174892
vt 0.602414 0.260232
vt 0.619743 0.234299
vt 0.525610 0.311551
vt 0.580360 0.282287
vt 0.554426 0.299615
vt 0.433238 0.311551
vt 0.463829 0.317636
vt 0.404422 0.299615
vt 0.356434 0.260232
vt 0.378489 0.282287
vt 0.327170 0.205483
vt 0.339105 0.234299
vt 0.356434 0.376955
vt 0.327170 0.524076
vt 0.321085 0.462295
vt 0.321085 0.493485
vt 0.339106 0.402889
vt 0.327170 0.431705
vt 0.602414 0.376955
vt 0.463829 0.319551
vt 0.433238 0.325636
vt 0.404422 0.337572
vt 0.525610 0.325636
vt 0.495019 0.319551
vt 0.554426 0.337572
vt 0.580360 0.354900
vt 0.637763 0.462295
vt 0.631678 0.431704
vt 0.631678 0.524077
vt 0.637763 0.493486
vt 0.602414 0.578827
vt 0.619742 0.552893
vt 0.580359 0.600881
vt 0.495019 0.636230
vt 0.525610 0.630145
vt 0.433238 0.630145
vt 0.463829 0.636230
vt 0.356434 0.578826
vt 0.404422 0.618209
vt 0.378488 0.600881
vt 0.378489 0.354900
vn -0.195100 0.000000 0.980800
vn -0.000000 0.000000 1.000000
vn -0.382700 0.000000 0.923900
vn -0.555600 0.000000 0.831500
vn -0.707100 0.000000 0.707100
vn -0.831500 0.000000 0.555600
vn -0.923900 0.000000 0.382700
vn -0.980800 0.000000 0.195100
vn -1.000000 0.000000 0.000000
vn -0.980800 0.000000 -0.195100
vn -0.923900 0.000000 -0.382700
vn -0.831500 0.000000 -0.555600
vn -0.707100 0.000000 -0.707100
vn -0.555600 0.000000 -0.831500
vn -0.382700 0.000000 -0.923900
vn -0.195100 0.000000 -0.980800
vn 0.000000 0.000000 -1.000000
vn 0.195100 0.000000 -0.980800
vn 0.382700 0.000000 -0.923900
vn 0.555600 0.000000 -0.831500
vn 0.707100 0.000000 -0.707100
vn 0.831500 0.000000 -0.555600
vn 0.923900 0.000000 -0.382700
vn 0.980800 0.000000 -0.195100
vn 1.000000 0.000000 0.000000
vn 0.980800 0.000000 0.195100
vn 0.923900 0.000000 0.382700
vn 0.831500 0.000000 0.555600
vn 0.707100 0.000000 0.707100
vn 0.555600 0.000000 0.831500
vn 0.382700 0.000000 0.923900
vn 0.000000 -1.000000 0.000000
vn 0.195100 0.000000 0.980800
vn 0.000000 1.000000 0.000000
g Cylinder.003_Cylinder.004_None
usemtl None
s 1
f 3/1/1 4/2/1 2/3/2
f 5/4/3 6/5/3 4/2/1
f 7/6/4 8/7/4 6/5/3
f 9/8/5 10/9/5 8/7/4
f 11/10/6 12/11/6 10/9/5
f 13/12/7 14/13/7 12/11/6
f 15/14/8 16/15/8 14/13/7
f 17/16/9 18/17/9 16/15/8
f 19/18/10 20/19/10 18/20/9
f 21/21/11 22/22/11 20/19/10
f 23/23/12 24/24/12 22/22/11
f 25/25/13 26/26/13 24/24/12
f 27/27/14 28/28/14 26/26/13
f 29/29/15 30/30/15 28/28/14
f 31/31/16 32/32/16 30/30/15
f 33/33/17 34/34/17 32/32/16
f 35/35/18 36/36/18 34/34/17
f 37/37/19 38/38/19 36/36/18
f 39/39/20 40/40/20 38/38/19
f 41/41/21 42/42/21 40/40/20
f 43/43/22 44/44/22 42/42/21
f 45/45/23 46/46/23 44/44/22
f 47/47/24 48/48/24 46/46/23
f 49/49/25 50/50/25 48/48/24
f 51/51/26 52/52/26 50/50/25
f 53/53/27 54/54/27 52/52/26
f 55/55/28 56/56/28 54/54/27
f 57/57/29 58/58/29 56/56/28
f 59/59/30 60/60/30 58/58/29
f 61/61/31 62/62/31 60/60/30
f 67/63/32 84/64/32 100/65/32
f 1/66/2 2/3/2 128/67/33
f 63/68/33 128/67/33 62/62/31
f 65/69/34 113/70/34 97/71/34
f 1/66/2 3/1/1 2/3/2
f 3/1/1 5/4/3 4/2/1
f 5/4/3 7/6/4 6/5/3
f 7/6/4 9/8/5 8/7/4
f 9/8/5 11/10/6 10/9/5
f 11/10/6 13/12/7 12/11/6
f 13/12/7 15/14/8 14/13/7
f 15/14/8 17/16/9 16/15/8
f 17/72/9 19/18/10 18/20/9
f 19/18/10 21/21/11 20/19/10
f 21/21/11 23/23/12 22/22/11
f 23/23/12 25/25/13 24/24/12
f 25/25/13 27/27/14 26/26/13
f 27/27/14 29/29/15 28/28/14
f 29/29/15 31/31/16 30/30/15
f 31/31/16 33/33/17 32/32/16
f 33/33/17 35/35/18 34/34/17
f 35/35/18 37/37/19 36/36/18
f 37/37/19 39/39/20 38/38/19
f 39/39/20 41/41/21 40/40/20
f 41/41/21 43/43/22 42/42/21
f 43/43/22 45/45/23 44/44/22
f 45/45/23 47/47/24 46/46/23
f 47/47/24 49/49/25 48/48/24
f 49/49/25 51/51/26 50/50/25
f 51/51/26 53/53/27 52/52/26
f 53/53/27 55/55/28 54/54/27
f 55/55/28 57/57/29 56/56/28
f 57/57/29 59/59/30 58/58/29
f 59/59/30 61/61/31 60/60/30
f 64/73/32 68/74/32 67/63/32
f 124/75/32 126/76/32 64/73/32
f 116/77/32 122/78/32 124/75/32
f 122/78/32 118/79/32 120/80/32
f 112/81/32 114/82/32 116/77/32
f 108/83/32 110/84/32 112/81/32
f 112/81/32 106/85/32 108/83/32
f 106/85/32 102/86/32 104/87/32
f 96/88/32 98/89/32 100/65/32
f 92/90/32 94/91/32 96/88/32
f 86/92/32 90/93/32 92/90/32
f 90/93/32 86/92/32 88/94/32
f 80/95/32 82/96/32 84/64/32
f 67/63/32 78/97/32 80/95/32
f 78/97/32 74/98/32 76/99/32
f 74/98/32 70/100/32 72/101/32
f 124/75/32 64/73/32 67/63/32
f 116/77/32 118/79/32 122/78/32
f 106/85/32 112/81/32 116/77/32
f 100/65/32 102/86/32 106/85/32
f 84/64/32 96/88/32 100/65/32
f 84/64/32 86/92/32 92/90/32
f 67/63/32 80/95/32 84/64/32
f 78/97/32 67/63/32 74/98/32
f 116/77/32 124/75/32 67/63/32
f 100/65/32 106/85/32 116/77/32
f 84/64/32 92/90/32 96/88/32
f 67/63/32 70/100/32 74/98/32
f 100/65/32 116/77/32 67/63/32
f 63/68/33 1/66/2 128/67/33
f 61/61/31 63/68/33 62/62/31
f 77/102/34 66/103/34 65/69/34
f 77/102/34 71/104/34 69/105/34
f 77/102/34 75/106/34 73/107/34
f 97/71/34 95/108/34 77/102/34
f 85/109/34 83/110/34 81/111/34
f 89/112/34 87/113/34 85/109/34
f 85/109/34 91/114/34 89/112/34
f 91/114/34 95/108/34 93/115/34
f 101/116/34 99/117/34 97/71/34
f 105/118/34 103/119/34 101/116/34
f 109/120/34 107/121/34 105/118/34
f 105/118/34 111/122/34 109/120/34
f 117/123/34 115/124/34 113/70/34
f 121/125/34 119/126/34 117/123/34
f 127/127/34 123/128/34 121/125/34
f 123/128/34 127/127/34 125/129/34
f 77/102/34 69/105/34 66/103/34
f 71/104/34 77/102/34 73/107/34
f 79/130/34 85/109/34 81/111/34
f 85/109/34 95/108/34 91/114/34
f 113/70/34 101/116/34 97/71/34
f 113/70/34 111/122/34 105/118/34
f 121/125/34 117/123/34 113/70/34
f 113/70/34 127/127/34 121/125/34
f 97/71/34 77/102/34 65/69/34
f 79/130/34 77/102/34 95/108/34
f 113/70/34 105/118/34 101/116/34
f 65/69/34 127/127/34 113/70/34
f 79/130/34 95/108/34 85/109/34
