# Blender v2.73 (sub 0) OBJ File: 'Hexagon.blend'
# www.blender.org
mtllib HexagonInverted.mtl
o Cylinder.003
v 0.000000 -100.000000 -100.000000
v 0.000000 100.000000 -100.000000
v 86.602547 -100.000000 -49.999996
v 86.602547 100.000000 -49.999996
v 86.602539 -100.000000 50.000008
v 86.602539 100.000000 50.000008
v -0.000009 -100.000000 100.000000
v -0.000009 100.000000 100.000000
v -86.602547 -100.000000 49.999992
v -86.602547 100.000000 49.999992
v -86.602547 -100.000000 -49.999992
v -86.602547 100.000000 -49.999992
v 0.000000 -100.000000 -100.000000
v 0.000000 -100.000000 -100.000000
v 86.602547 -100.000000 -49.999996
v 86.602547 -100.000000 -49.999996
v 86.602547 100.000000 -49.999996
v 86.602547 100.000000 -49.999996
v 0.000000 100.000000 -100.000000
v 0.000000 100.000000 -100.000000
v 86.602539 -100.000000 50.000008
v 86.602539 -100.000000 50.000008
v 86.602539 100.000000 50.000008
v 86.602539 100.000000 50.000008
v -0.000009 -100.000000 100.000000
v -0.000009 -100.000000 100.000000
v -0.000009 100.000000 100.000000
v -0.000009 100.000000 100.000000
v -86.602547 -100.000000 49.999992
v -86.602547 -100.000000 49.999992
v -86.602547 100.000000 49.999992
v -86.602547 100.000000 49.999992
v -86.602547 -100.000000 -49.999992
v -86.602547 -100.000000 -49.999992
v -86.602547 100.000000 -49.999992
v -86.602547 100.000000 -49.999992
vt 0.112304 0.353454
vt 0.370768 0.129618
vt 0.258850 0.000386
vt 0.224222 0.482686
vt 0.482686 0.258850
vt 0.336140 0.611918
vt 0.594604 0.388082
vt 0.448059 0.741150
vt 0.706523 0.517314
vt 0.818441 0.194234
vt 0.874400 0.485006
vt 0.671895 0.999614
vt 0.930359 0.775778
vt 0.818441 0.646546
vt 0.559977 0.870382
vt 0.112304 0.805766
vt 0.168263 0.644226
vt 0.000386 0.224222
vt 0.930359 0.323466
vt 0.650564 0.226542
vt 0.224222 0.934999
vt 0.392099 0.902690
vn -0.500000 0.000000 0.866000
vn -1.000000 0.000000 -0.000000
vn -0.500000 0.000000 -0.866000
vn 0.500000 0.000000 -0.866000
vn 0.000000 -1.000000 0.000000
vn 0.500000 0.000000 0.866000
vn 1.000000 0.000000 0.000000
vn 0.000000 1.000000 -0.000000
g Cylinder.003_Cylinder.003_None
usemtl None
s off
f 3/1/1 4/2/1 2/3/1
f 5/4/2 6/5/2 17/2/2
f 7/6/3 8/7/3 23/5/3
f 9/8/4 10/9/4 27/7/4
f 18/10/5 28/7/5 12/11/5
f 13/12/6 20/13/6 35/14/6
f 11/15/7 36/14/7 32/9/7
f 16/16/8 30/8/8 22/17/8
f 1/18/1 3/1/1 2/3/1
f 15/1/2 5/4/2 17/2/2
f 21/4/3 7/6/3 23/5/3
f 25/6/4 9/8/4 27/7/4
f 12/11/5 19/19/5 18/10/5
f 28/7/5 31/9/5 12/11/5
f 18/10/5 24/20/5 28/7/5
f 33/15/6 13/12/6 35/14/6
f 29/8/7 11/15/7 32/9/7
f 30/8/8 16/16/8 14/21/8
f 30/8/8 26/6/8 22/17/8
f 14/21/8 34/22/8 30/8/8
